<svg id="Arrow_scroll" xmlns="http://www.w3.org/2000/svg" xmlns:xlink="http://www.w3.org/1999/xlink" width="73.045" height="97.398" viewBox="0 0 73.045 97.398">
  <defs>
    <clipPath id="clip-path">
      <rect id="Rectangle_3" data-name="Rectangle 3" width="73.045" height="97.398" fill="#e2ddd6"/>
    </clipPath>
  </defs>
  <g id="Group_4" data-name="Group 4" clip-path="url(#clip-path)">
    <path id="Path_38" data-name="Path 38" d="M37.607,96.955a1.527,1.527,0,0,1-2.149,0L6.544,68.042a1.52,1.52,0,0,1,2.149-2.149L35,92.2V25.87a1.522,1.522,0,1,1,3.044,0V92.2L64.352,65.892A1.52,1.52,0,0,1,66.5,68.042L37.588,96.955ZM3.044,0A3.044,3.044,0,1,1,0,3.044,3.052,3.052,0,0,1,3.044,0M22.826,3.044A3.044,3.044,0,1,1,19.783,0a3.052,3.052,0,0,1,3.044,3.044M36.522,0a3.044,3.044,0,1,1-3.044,3.044A3.052,3.052,0,0,1,36.522,0M56.305,3.044A3.044,3.044,0,1,1,53.262,0a3.052,3.052,0,0,1,3.044,3.044M70,0a3.044,3.044,0,1,1-3.044,3.044A3.052,3.052,0,0,1,70,0" fill="#e2ddd6"/>
  </g>
</svg>
