<svg id="Icon_sms" xmlns="http://www.w3.org/2000/svg" xmlns:xlink="http://www.w3.org/1999/xlink" width="26.733" height="26.732" viewBox="0 0 26.733 26.732">
  <defs>
    <clipPath id="clip-path">
      <rect id="Rectangle_331" data-name="Rectangle 331" width="26.733" height="26.732" fill="#707070"/>
    </clipPath>
  </defs>
  <g id="Group_836" data-name="Group 836">
    <g id="Group_835" data-name="Group 835" clip-path="url(#clip-path)">
      <path id="Path_1519" data-name="Path 1519" d="M3.472,19.705a.827.827,0,0,1,.1.909L1,25.768l6.516-2.605a.841.841,0,0,1,.637.005,13.239,13.239,0,0,0,5.216,1.055c6.971,0,12.531-5.284,12.531-11.7S20.337.835,13.367.835.835,6.119.835,12.531a11.153,11.153,0,0,0,2.637,7.174m-.642.538A11.989,11.989,0,0,1,0,12.531C0,5.613,5.984,0,13.367,0S26.733,5.613,26.733,12.531,20.75,25.063,13.367,25.063A14.118,14.118,0,0,1,7.822,23.94L.961,26.681a.69.69,0,0,1-.888-.924Z" fill="#707070"/>
    </g>
  </g>
</svg>
