<svg id="icon_IG" xmlns="http://www.w3.org/2000/svg" xmlns:xlink="http://www.w3.org/1999/xlink" width="50" height="50" viewBox="0 0 50 50">
  <defs>
    <clipPath id="clip-path">
      <rect id="Rectangle_322" data-name="Rectangle 322" width="50" height="50" fill="none"/>
    </clipPath>
  </defs>
  <g id="Group_822" data-name="Group 822" clip-path="url(#clip-path)">
    <path id="Path_1487" data-name="Path 1487" d="M50,25A25,25,0,1,1,25,0,25,25,0,0,1,50,25" transform="translate(0 0.001)" fill="#707070"/>
    <path id="Path_1488" data-name="Path 1488" d="M44.649,38.111a6.544,6.544,0,1,0,6.527,6.561,6.546,6.546,0,0,0-6.527-6.561m-.034,2.3a4.245,4.245,0,1,1-4.228,4.262,4.245,4.245,0,0,1,4.228-4.262m5.315-2.566a1.525,1.525,0,1,1,1.525,1.525,1.525,1.525,0,0,1-1.525-1.525m7.38,1.548a7.063,7.063,0,0,0-7.4-7.4c-2.105-.119-8.416-.119-10.522,0a7.054,7.054,0,0,0-7.4,7.4c-.119,2.105-.119,8.416,0,10.522a7.062,7.062,0,0,0,7.4,7.4c2.105.119,8.416.119,10.522,0a7.062,7.062,0,0,0,7.4-7.4c.12-2.105.12-8.41,0-10.516M54.59,52.167a4.305,4.305,0,0,1-2.424,2.424c-1.678.666-5.662.512-7.517.512s-5.844.148-7.517-.512a4.3,4.3,0,0,1-2.424-2.424c-.666-1.679-.512-5.662-.512-7.517s-.148-5.844.512-7.517a4.3,4.3,0,0,1,2.424-2.424c1.678-.666,5.662-.512,7.517-.512s5.844-.148,7.517.512a4.3,4.3,0,0,1,2.424,2.424c.666,1.678.512,5.662.512,7.517s.154,5.844-.512,7.517" transform="translate(-19.646 -19.65)" fill="#e2ddd6"/>
  </g>
</svg>
