<svg id="Icon_slogan" xmlns="http://www.w3.org/2000/svg" xmlns:xlink="http://www.w3.org/1999/xlink" width="536" height="95.976" viewBox="0 0 536 95.976">
  <defs>
    <clipPath id="clip-path">
      <rect id="Rectangle_326" data-name="Rectangle 326" width="536" height="95.976" fill="none"/>
    </clipPath>
  </defs>
  <g id="Group_830" data-name="Group 830" clip-path="url(#clip-path)">
    <path id="Path_1493" data-name="Path 1493" d="M2.231,56.978A4.166,4.166,0,0,1,0,52.874a10.5,10.5,0,0,1,1.152-4.463C3.815,43.658,6.911,42,9.071,42c1.727,0,2.881.935,2.951,2.16,0,.432-.215.647-.431.647a.457.457,0,0,1-.434-.36,1.215,1.215,0,0,0-.431-.792,1.735,1.735,0,0,0-1.3-.5c-2.016,0-4.824,2.593-6.12,5.112a10.483,10.483,0,0,0-1.584,4.9A2.814,2.814,0,0,0,4.75,56.116h.36c5.4,0,14.977-6.12,21.384-10.945l.36-.144a.31.31,0,0,1,.289.287c0,.073-.072.216-.289.36C20.087,51,10.151,57.411,4.392,57.411a5.237,5.237,0,0,1-2.161-.433" transform="translate(0 -1.252)" fill="#161615"/>
    <path id="Path_1494" data-name="Path 1494" d="M23.458,56.9a3.719,3.719,0,0,1-2.088-3.744,10.362,10.362,0,0,1,1.368-4.823c2.881-5.113,6.408-6.7,8.64-6.7,1.3,0,2.161.5,2.161,1.224,0,1.8-3.168,4.752-9.071,5.9a10.218,10.218,0,0,0-1.3,4.392A2.7,2.7,0,0,0,26.049,56.1h.361c5.4,0,15.192-6.12,21.672-10.945l.36-.143a.319.319,0,0,1,.287.215.52.52,0,0,1-.287.432c-6.985,5.328-17.065,11.664-22.824,11.664a5.266,5.266,0,0,1-2.161-.432m9.289-13.535a.622.622,0,0,0-.217-.433,1.15,1.15,0,0,0-.792-.287c-1.44,0-4.248,1.367-6.7,5.039,3.384-.287,7.7-2.952,7.7-4.319" transform="translate(-0.637 -1.241)" fill="#161615"/>
    <path id="Path_1495" data-name="Path 1495" d="M33.464,64.613c0-1.583.936-3.672,3.312-5.832a27.164,27.164,0,0,1,8.64-5.185c.432-2.88.361-6.623,1.368-9.359,1.08-2.881,3.672-4.608,5.257-4.608a1.2,1.2,0,0,1,1.222.72l.074.432c0,1.872-4.321,4.032-5.04,4.319-.577,2.376-.5,4.537-1.008,7.777,7.848-2.3,17.784-5.544,20.519-7.92a.265.265,0,0,1,.217-.073.191.191,0,0,1,.215.215l-.073.217c-3.959,3.6-15.622,6.407-21.1,8.567C45.2,64.181,40.3,67.853,36.921,67.853a3.2,3.2,0,0,1-3.457-3.24m11.808-9.937a26.112,26.112,0,0,0-8.064,4.9c-2.016,2.088-2.735,3.744-2.735,4.9a2.229,2.229,0,0,0,.936,1.944,2.32,2.32,0,0,0,1.512.576c3.168,0,7.56-5.9,8.352-12.313m7.415-13.751v-.145a.548.548,0,0,0-.575-.5c-1.081,0-3.24,2.305-3.6,3.889.792-.361,4.175-2.16,4.175-3.24" transform="translate(-0.997 -1.181)" fill="#161615"/>
    <path id="Path_1496" data-name="Path 1496" d="M53.014,79.055a8.87,8.87,0,0,1-.5-3.168c0-14.9,24.12-49.176,30.671-58.9-7.775-1.512-16.776-3.24-25.2-3.24-6.553,0-12.744,1.008-17.712,4.1L39.91,18a.265.265,0,0,1-.289-.289.748.748,0,0,1,.36-.5c5.4-3.383,12.168-4.535,19.3-4.535,8.352,0,17.137,1.583,24.767,2.952C86.637,11.88,92.181,4.248,95.206.431A1.42,1.42,0,0,1,96.213,0c.575,0,1.152.36,1.152.791a.775.775,0,0,1-.216.5c-3.383,4.464-8.28,11.3-10.583,14.833,1.223.143,2.376.431,3.528.575,6.7,1.08,17.784,2.736,27.648,2.736,7.489,0,14.328-.935,18-3.816a.952.952,0,0,1,.5-.216.309.309,0,0,1,.288.287.627.627,0,0,1-.288.5c-4.249,3.312-12.168,4.392-20.591,4.392a164.665,164.665,0,0,1-25.921-2.447c-1.3-.217-2.665-.5-4.1-.721C78.646,27.143,53.3,63.359,53.3,76.247a6.2,6.2,0,0,0,.433,2.448l.072.288c0,.287-.145.5-.36.5-.145,0-.289-.143-.432-.432" transform="translate(-1.18 0)" fill="#161615"/>
    <path id="Path_1497" data-name="Path 1497" d="M88.664,61.968c-1.655,0-2.3-1.439-2.3-3.455a17.318,17.318,0,0,1,1.8-7.056c-2.809,2.089-4.969,2.881-6.481,2.881-2.016,0-2.951-1.368-2.951-3.168,0-2.952,2.52-6.985,7.272-8.281a4.443,4.443,0,0,1,1.368-.144c1.584,0,2.951.791,4.32,2.736L92.7,43.969a.435.435,0,0,1,.432-.216,1.312,1.312,0,0,1,1.154,1.008l-.073.215A50.78,50.78,0,0,0,90.034,51.6a15.281,15.281,0,0,0-2.3,6.985c0,1.44.5,2.231,1.223,2.3H89.1c4.751,0,18.647-14.041,25.127-15.84l.287-.073a.329.329,0,0,1,.36.288c0,.072-.143.216-.287.361-8.5,3.528-20.448,16.2-25.7,16.342Zm2.305-15.48c-1.08-1.872-2.305-2.591-3.528-2.591-1.945,0-3.889,1.8-5.4,3.816-1.44,1.872-2.016,3.24-2.016,4.249,0,.935.576,1.44,1.584,1.44,1.944,0,5.688-2.161,9.361-6.913" transform="translate(-2.346 -1.274)" fill="#161615"/>
    <path id="Path_1498" data-name="Path 1498" d="M148.257,59.909c-3.1,0-4.1-4.393-5.4-9.577-5.831,4.608-7.847,8.785-8.856,8.785h-.071c-.216-.073-.289-.289-.289-.576,0-2.881,6.985-15.048,15.192-26.784C157.76,19.013,167.841,7.421,172.3,7.421a3.1,3.1,0,0,1,.791.144,1.95,1.95,0,0,1,1.3,2.016c0,7.56-27.143,31.392-31.967,34.92l-4.967,8.64c2.808-3.456,11.447-10.8,16.2-10.8a2.878,2.878,0,0,1,2.448,1.152,2.035,2.035,0,0,1,.289.864c0,1.439-1.945,3.168-4.537,4.03a25.057,25.057,0,0,1-7.272,1.08h-.575c1.512,6.193,2.087,9.073,4.463,9.29h.145c4.9,0,17.352-12.817,22.9-14.761l.287-.073a.323.323,0,0,1,.288.216c0,.144-.145.288-.36.36-5.688,2.089-16.991,14.833-23.111,15.409ZM173.529,9.581a1.514,1.514,0,0,0-.434-1.152,1.216,1.216,0,0,0-.72-.217c-5.4,0-26.352,30.241-28.87,34.345,2.951-2.591,30.024-26.5,30.024-32.976M155.24,44.573c0-.36-.287-.649-.863-.649l-.434.073a20.145,20.145,0,0,0-3.239,1.152,60.987,60.987,0,0,0-5.833,3.457c7.2-.217,10.368-2.809,10.368-4.032" transform="translate(-3.982 -0.221)" fill="#161615"/>
    <path id="Path_1499" data-name="Path 1499" d="M169.121,56.9a3.719,3.719,0,0,1-2.088-3.744,10.362,10.362,0,0,1,1.368-4.823c2.881-5.113,6.408-6.7,8.64-6.7,1.3,0,2.161.5,2.161,1.224,0,1.8-3.168,4.752-9.071,5.9a10.218,10.218,0,0,0-1.3,4.392,2.7,2.7,0,0,0,2.879,2.952h.361c5.4,0,15.192-6.12,21.672-10.945l.36-.143a.319.319,0,0,1,.287.215.52.52,0,0,1-.287.432c-6.984,5.328-17.065,11.664-22.824,11.664a5.266,5.266,0,0,1-2.161-.432m9.289-13.535a.622.622,0,0,0-.217-.433,1.15,1.15,0,0,0-.792-.287c-1.44,0-4.248,1.367-6.7,5.039,3.384-.287,7.7-2.952,7.7-4.319" transform="translate(-4.977 -1.241)" fill="#161615"/>
    <path id="Path_1500" data-name="Path 1500" d="M227.507,59.909c-3.1,0-4.1-4.393-5.4-9.577-5.833,4.608-7.849,8.785-8.856,8.785h-.073c-.215-.073-.287-.289-.287-.576,0-2.881,6.984-15.048,15.191-26.784,8.929-12.744,19.007-24.336,23.473-24.336a3.11,3.11,0,0,1,.791.144,1.95,1.95,0,0,1,1.3,2.016c0,7.56-27.143,31.392-31.968,34.92l-4.968,8.64c2.81-3.456,11.449-10.8,16.2-10.8a2.878,2.878,0,0,1,2.449,1.152,2.058,2.058,0,0,1,.287.864c0,1.439-1.943,3.168-4.535,4.03a25.072,25.072,0,0,1-7.273,1.08h-.576c1.512,6.193,2.088,9.073,4.464,9.29h.145c4.9,0,17.351-12.817,22.895-14.761l.289-.073a.321.321,0,0,1,.287.216c0,.144-.144.288-.36.36-5.687,2.089-16.992,14.833-23.111,15.409ZM252.779,9.581a1.52,1.52,0,0,0-.432-1.152,1.216,1.216,0,0,0-.72-.217c-5.4,0-26.352,30.241-28.872,34.345,2.952-2.591,30.024-26.5,30.024-32.976M234.492,44.573c0-.36-.288-.649-.864-.649L233.2,44a20.124,20.124,0,0,0-3.241,1.152,61.094,61.094,0,0,0-5.831,3.457c7.2-.217,10.368-2.809,10.368-4.032" transform="translate(-6.343 -0.221)" fill="#161615"/>
    <path id="Path_1501" data-name="Path 1501" d="M248.611,60.021a2.174,2.174,0,0,1-1.585-2.3c0-2.808,2.81-7.273,3.457-9.289a6.135,6.135,0,0,0,.288-1.512,1.259,1.259,0,0,0-.433-1.08,1.339,1.339,0,0,1-.72-1.223c0-1.729,2.376-4.392,4.177-4.392l.36.072c.288.073.431.215.431.5,0,1.081-2.231,3.529-3.311,4.177a2.552,2.552,0,0,1,.793,2.016c0,3.312-3.96,8.352-3.96,10.655a1.106,1.106,0,0,0,.864,1.224,2.22,2.22,0,0,0,.72.072c4.895,0,20.159-11.015,24.12-13.751a.772.772,0,0,1,.5-.145c.145,0,.217,0,.217.145a.582.582,0,0,1-.36.431c-4.321,3.025-19.152,14.544-24.7,14.544Zm4.895-18.647c0-.072,0-.072-.072-.072-.791.432-2.52,2.448-2.52,2.952v.072a8.133,8.133,0,0,0,2.591-2.952" transform="translate(-7.36 -1.198)" fill="#161615"/>
    <path id="Path_1502" data-name="Path 1502" d="M279.3,61.785c-1.656,0-2.377-1.439-2.377-3.455a17.923,17.923,0,0,1,1.8-7.128c-2.808,2.088-4.968,2.952-6.48,2.952-2.016,0-2.952-1.441-2.952-3.241,0-2.879,2.52-6.983,7.273-8.207a4.869,4.869,0,0,1,1.368-.215c1.584,0,2.951.863,4.32,2.736l.936-1.514c.071-.143.214-.143.432-.143.431,0,1.151.5,1.151.936l-.071.215a62.2,62.2,0,0,0-4.1,6.7c-1.729,3.168-2.376,5.473-2.376,7.056,0,1.368.576,2.16,1.3,2.16h.215c4.753,0,18.576-14.04,25.057-15.84h.144c.287,0,.431.073.431.215s-.07.217-.287.36c-8.423,3.53-20.375,16.2-25.632,16.416Zm2.231-15.48c-1.08-1.872-2.305-2.592-3.528-2.592-1.873,0-3.817,1.8-5.4,3.745-1.441,1.872-2.016,3.312-2.016,4.249s.575,1.44,1.584,1.44c2.016,0,5.688-2.089,9.361-6.841m-6.913-5.471.073-.145a32.3,32.3,0,0,1,5.326-4.032l.36-.071c.649,0,1.441.575,1.441.863,0,.145-.072.145-.145.217-2.087,1.007-4.1,2.3-6.191,3.383l-.29.072c-.286,0-.574-.143-.574-.287" transform="translate(-8.023 -1.09)" fill="#161615"/>
    <path id="Path_1503" data-name="Path 1503" d="M290.362,64.613c0-1.583.936-3.672,3.312-5.832a27.169,27.169,0,0,1,8.639-5.185c.433-2.88.36-6.623,1.369-9.359,1.08-2.881,3.672-4.608,5.255-4.608a1.207,1.207,0,0,1,1.225.72l.071.432c0,1.872-4.319,4.032-5.039,4.319-.576,2.376-.5,4.537-1.007,7.777,7.847-2.3,17.783-5.544,20.519-7.92a.263.263,0,0,1,.216-.073.191.191,0,0,1,.215.215l-.072.217c-3.96,3.6-15.624,6.407-21.1,8.567-1.872,10.3-6.767,13.969-10.152,13.969a3.2,3.2,0,0,1-3.455-3.24m11.808-9.937a26.09,26.09,0,0,0-8.064,4.9c-2.016,2.088-2.737,3.744-2.737,4.9a2.233,2.233,0,0,0,.936,1.944,2.324,2.324,0,0,0,1.512.576c3.168,0,7.56-5.9,8.353-12.313m7.415-13.751v-.145a.55.55,0,0,0-.575-.5c-1.081,0-3.242,2.305-3.6,3.889.792-.361,4.177-2.16,4.177-3.24" transform="translate(-8.651 -1.181)" fill="#161615"/>
    <path id="Path_1504" data-name="Path 1504" d="M315.962,58.609v-.215a29.884,29.884,0,0,1,2.663-5.9c2.449-4.176,5.041-8.135,5.473-8.64a.746.746,0,0,1,.575-.289,1.007,1.007,0,0,1,.936.794.542.542,0,0,1-.145.287A93.912,93.912,0,0,0,317.186,57.6c1.943-2.233,10.152-11.232,13.535-11.232a1.191,1.191,0,0,1,.72.143c.216.145.5.217.5.72l-.073.5a17.037,17.037,0,0,0-.36,3.457c0,3.168.936,6.335,3.6,6.408,5.256,0,15.767-10.08,20.16-12.528h.215c.145,0,.288.072.288.215,0,.072-.071.145-.215.216-5.041,3.383-15.335,13.1-20.736,13.1h-.145c-4.535-.145-5.184-5.256-5.184-8.856V48.1c-4.9,2.808-10.3,8.711-12.6,11.017l-.361.145a.635.635,0,0,1-.575-.649" transform="translate(-9.414 -1.298)" fill="#161615"/>
    <path id="Path_1505" data-name="Path 1505" d="M352.482,56.568c-1.512-.647-2.088-2.088-2.088-3.815A10.239,10.239,0,0,1,351.69,48c2.88-5.04,6.479-6.624,8.711-6.624,1.3,0,2.161.5,2.161,1.224,0,1.8-3.168,4.751-9,5.831a10.786,10.786,0,0,0-1.367,4.464,2.682,2.682,0,0,0,2.879,2.881h.36c5.4,0,15.12-6.12,21.672-10.944l.36-.144a.308.308,0,0,1,.287.287c0,.073-.071.216-.287.36C370.482,50.664,360.546,57,354.713,57a5.606,5.606,0,0,1-2.232-.433m9.289-13.535a.618.618,0,0,0-.217-.432,1.152,1.152,0,0,0-.792-.217c-1.367,0-4.248,1.224-6.7,5.041,3.456-.289,7.7-3.025,7.7-4.392m-5.041-3.312.073-.145a38.022,38.022,0,0,1,5.328-4.032l.287-.071c.648,0,1.512.647,1.512,1.007l-.143.145c-2.161.935-4.177,2.231-6.265,3.311l-.288.072c-.215,0-.5-.143-.5-.287" transform="translate(-10.44 -1.057)" fill="#161615"/>
    <path id="Path_1506" data-name="Path 1506" d="M372.92,96.841a2.847,2.847,0,0,1-1.008-2.519c0-5.186,6.264-15.7,7.631-17.929a125.532,125.532,0,0,1,18.432-23.256c.794-1.582,1.585-2.951,2.376-4.318,2.305-3.745,3.889-6.12,6.553-9.792a1.049,1.049,0,0,1,.864-.288c.576,0,1.152.215,1.152.5l-.145.216-6.839,10.223c5.975-5.544,10.223-7.7,12.672-7.7a2.224,2.224,0,0,1,2.448,2.519c0,1.584-.864,3.817-2.592,6.264,5.113,0,9.937-1.512,16.848-5.615a.709.709,0,0,1,.433-.145c.144,0,.216.072.216.145,0,.144-.073.287-.36.431-7.129,4.608-12.1,5.977-17.857,5.977,0,0-4.537,5.111-9.431,5.111h-.289A3.007,3.007,0,0,1,401.215,54l.072-.649c1.009-2.519,7.777-2.519,10.729-2.592,2.087-2.519,3.168-4.823,3.168-6.191a1.22,1.22,0,0,0-1.369-1.369c-1.512,0-4.176,1.3-8.281,4.608-4.319,3.385-3.455,2.736-5.039,4.464-3.888,6.336-19.728,44.856-26.639,44.856a1.579,1.579,0,0,1-.936-.289m22.9-39.671A153.492,153.492,0,0,0,380.48,77.114c-.577,1.008-7.488,13.176-7.488,17.424,0,.792.287,1.3.865,1.368H374c4.968,0,18.432-32.04,21.817-38.735M411.367,51.7c-2.016.073-9,.36-9,2.305a1.26,1.26,0,0,0,.36.864,1.89,1.89,0,0,0,1.585.647c2.447,0,6.048-2.881,7.055-3.817" transform="translate(-11.081 -1.154)" fill="#161615"/>
    <path id="Path_1507" data-name="Path 1507" d="M426.1,66.818c-1.44-.719-2.016-2.231-2.016-4.248,0-6.983,7.344-20.015,11.52-26.5,10.512-16.2,25.559-28.728,30.238-28.728a1.267,1.267,0,0,1,1.081.432,1.413,1.413,0,0,1,.36,1.08c0,6.84-28.44,30.311-34.271,35.64-.793,1.009-6.913,13.321-6.913,18.72,0,1.512.5,2.448,1.727,2.448C435.526,65.522,450,47.81,458.638,44l.36-.074a.33.33,0,0,1,.361.289.521.521,0,0,1-.432.432c-6.985,2.664-24.408,22.464-31.536,22.464a2.809,2.809,0,0,1-1.3-.289M455.255,22.9C461.088,17.067,466.2,10.875,466.2,9.148l-.071-.289a.427.427,0,0,0-.36-.145c-1.224,0-4.824,1.945-10.368,7.056a126.463,126.463,0,0,0-21.455,26.856c6.119-5.544,14.4-12.815,21.311-19.728" transform="translate(-12.635 -0.219)" fill="#161615"/>
    <path id="Path_1508" data-name="Path 1508" d="M456.145,56.9a3.719,3.719,0,0,1-2.087-3.744,10.361,10.361,0,0,1,1.367-4.823c2.88-5.113,6.408-6.7,8.641-6.7,1.3,0,2.16.5,2.16,1.224,0,1.8-3.168,4.752-9.072,5.9a10.218,10.218,0,0,0-1.3,4.392,2.7,2.7,0,0,0,2.881,2.952h.36c5.4,0,15.191-6.12,21.672-10.945l.36-.143a.32.32,0,0,1,.287.215.518.518,0,0,1-.287.432c-6.984,5.328-17.064,11.664-22.824,11.664a5.262,5.262,0,0,1-2.161-.432m9.288-13.535a.622.622,0,0,0-.215-.433,1.154,1.154,0,0,0-.792-.287c-1.441,0-4.249,1.367-6.7,5.039,3.383-.287,7.7-2.952,7.7-4.319" transform="translate(-13.528 -1.241)" fill="#161615"/>
    <path id="Path_1509" data-name="Path 1509" d="M465.963,79.055a8.892,8.892,0,0,1-.5-3.168c0-14.9,24.119-49.176,30.671-58.9-7.776-1.512-16.776-3.24-25.2-3.24-6.552,0-12.744,1.008-17.712,4.1l-.36.145a.264.264,0,0,1-.287-.289.748.748,0,0,1,.36-.5c5.4-3.383,12.168-4.535,19.294-4.535,8.353,0,17.137,1.583,24.769,2.952,2.591-3.744,8.135-11.377,11.159-15.193A1.424,1.424,0,0,1,509.163,0c.576,0,1.152.36,1.152.791a.773.773,0,0,1-.215.5c-3.383,4.464-8.28,11.3-10.585,14.833,1.224.143,2.376.431,3.53.575,6.7,1.08,17.783,2.736,27.648,2.736,7.487,0,14.326-.935,18-3.816a.954.954,0,0,1,.5-.216.309.309,0,0,1,.289.287.625.625,0,0,1-.289.5c-4.247,3.312-12.167,4.392-20.593,4.392a164.648,164.648,0,0,1-25.918-2.447c-1.3-.217-2.665-.5-4.106-.721-6.983,9.72-32.327,45.935-32.327,58.824a6.215,6.215,0,0,0,.432,2.448l.073.288c0,.287-.144.5-.36.5-.145,0-.288-.143-.433-.432" transform="translate(-13.484 0)" fill="#161615"/>
    <path id="Path_1510" data-name="Path 1510" d="M493.038,57.31a3.4,3.4,0,0,1-1.656-3.168c0-4.464,4.968-11.664,6.913-13.824a.624.624,0,0,1,.432-.215,1.08,1.08,0,0,1,1.009.936l-.145.287c-2.736,3.1-6.984,9.432-6.984,12.816a2.13,2.13,0,0,0,1.08,2.087,2.4,2.4,0,0,0,1.081.217c4.824,0,16.056-9.936,20.519-11.52l.361-.072c.215,0,.36.072.36.216s-.145.36-.5.431c-4.464,1.656-15.841,12.1-21.168,12.1a2.644,2.644,0,0,1-1.3-.288m8.137-18.936a1.228,1.228,0,0,1-.5-.936,1.772,1.772,0,0,1,.287-.863,1,1,0,0,1,.794-.36,1.654,1.654,0,0,1,1.44,1.367,1.164,1.164,0,0,1-.217.649.9.9,0,0,1-.862.36,1.8,1.8,0,0,1-.936-.217" transform="translate(-14.64 -1.079)" fill="#161615"/>
  </g>
</svg>
