<svg id="icon_kontakt" xmlns="http://www.w3.org/2000/svg" width="86.185" height="83.405" viewBox="0 0 86.185 83.405">
  <path id="icon_kontakt-2" data-name="icon_kontakt" d="M106.752,64a1.394,1.394,0,0,1,1.39,1.39v80.625a1.39,1.39,0,0,1-2.78,0V65.39A1.394,1.394,0,0,1,106.752,64Zm33.362,11.121a1.394,1.394,0,0,1,1.39,1.39v58.383a1.39,1.39,0,0,1-2.78,0V76.511A1.394,1.394,0,0,1,140.114,75.121Zm-50.043,5.56a1.394,1.394,0,0,1,1.39,1.39v47.263a1.39,1.39,0,0,1-2.78,0V82.071A1.394,1.394,0,0,1,90.071,80.681Zm33.362,5.56a1.394,1.394,0,0,1,1.39,1.39v36.142a1.39,1.39,0,0,1-2.78,0V87.631A1.394,1.394,0,0,1,123.433,86.241ZM73.39,97.362a1.394,1.394,0,0,1,1.39,1.39v13.9a1.39,1.39,0,1,1-2.78,0v-13.9A1.394,1.394,0,0,1,73.39,97.362Zm83.4,0a1.394,1.394,0,0,1,1.39,1.39v13.9a1.39,1.39,0,1,1-2.78,0v-13.9A1.394,1.394,0,0,1,156.795,97.362Z" transform="translate(-72 -64)" fill="#707070"/>
</svg>
