<svg height="209.609" viewBox="0 0 420 209.609" width="420" xmlns="http://www.w3.org/2000/svg" xmlns:xlink="http://www.w3.org/1999/xlink"><clipPath id="a"><path d="m0 0h420v209.609h-420z"/></clipPath><g clip-path="url(#a)"><path d="m145.392 209.609v-1.9q10.387 0 13.5-7.293t-4.892-22.835l-54.616-96.4-28.793 30.44-.3 76.424q.591 19.026 21.075 19.662v1.9h-64.706v-1.9q20.772-.633 21.074-20.3v-165.207q-.299-19.661-21.074-20.3v-1.9h64.709v1.9q-20.482.639-21.075 19.66v86.89q60.253-63.739 77.176-82.45a48.088 48.088 0 0 0 3.71-3.805q1.036-1.263 2.523-3.487a15.318 15.318 0 0 0 1.929-3.647 9.528 9.528 0 0 0 .3-3.489 10.83 10.83 0 0 0 -1.337-4.281q-2.382-5.391-12.765-5.391v-1.9h46.6v1.9a33.083 33.083 0 0 0 -14.4 4.281 54.246 54.246 0 0 0 -11.13 7.61q-3.862 3.65-10.093 10.306-8.314 8.881-17.365 18.551t-14.1 15.063l-5.042 5.389q57.582 98.937 69.161 118.281a12.493 12.493 0 0 1 1.484 2.221q3.563 6.025 5.64 9.037a63.559 63.559 0 0 0 5.937 7.135 24.727 24.727 0 0 0 8.311 6.025 26.268 26.268 0 0 0 10.389 1.9v1.9z" fill="#e2ddd6" transform="translate(-8.024)"/><path d="m473.344 1.9q-20.481.64-21.075 19.661v166.484q.592 19.026 21.075 19.662v1.9h-64.71v-1.9q20.773-.634 21.076-20.3v-79.907h-86.378v80.545q.591 19.026 21.076 19.662v1.9h-64.708v-1.9q20.773-.634 21.074-20.3v-165.207q-.3-19.658-21.074-20.3v-1.9h64.709v1.9q-20.483.64-21.076 19.661v82.765h86.377v-82.126q-.3-19.658-21.076-20.3v-1.9h64.709z" fill="#e2ddd6" transform="translate(-90.207)"/><path d="m100.287 192.264h-99.861v-139.207h419.405v139.207h-115.041" fill="none" stroke="#161615" stroke-width=".851" transform="translate(-.128 -15.97)"/><g fill="#161615"><path d="m25.8 164.876a3 3 0 0 1 -1.608-2.957 7.576 7.576 0 0 1 .829-3.215c1.919-3.424 4.149-4.617 5.707-4.617 1.244 0 2.075.674 2.126 1.556 0 .311-.155.466-.31.466a.329.329 0 0 1 -.312-.259.875.875 0 0 0 -.31-.57 1.251 1.251 0 0 0 -.935-.363c-1.452 0-3.475 1.868-4.409 3.683a7.547 7.547 0 0 0 -1.142 3.528 2.028 2.028 0 0 0 2.179 2.127h.259c3.891 0 10.79-4.409 15.407-7.886l.259-.1a.224.224 0 0 1 .209.207c0 .052-.052.156-.209.259-4.876 3.839-12.033 8.456-16.183 8.456a3.77 3.77 0 0 1 -1.556-.312" transform="translate(-7.283 -46.379)"/><path d="m47.07 164.713a2.68 2.68 0 0 1 -1.5-2.7 7.465 7.465 0 0 1 .986-3.475c2.075-3.684 4.617-4.825 6.225-4.825.934 0 1.557.363 1.557.882 0 1.3-2.282 3.424-6.536 4.253a7.362 7.362 0 0 0 -.934 3.164 1.948 1.948 0 0 0 2.074 2.127h.26c3.891 0 10.946-4.409 15.614-7.886l.259-.1a.23.23 0 0 1 .207.155.375.375 0 0 1 -.207.311c-5.032 3.839-12.295 8.4-16.444 8.4a3.794 3.794 0 0 1 -1.557-.311m6.692-9.752a.448.448 0 0 0 -.157-.312.828.828 0 0 0 -.57-.207c-1.037 0-3.06.985-4.824 3.631 2.438-.207 5.551-2.127 5.551-3.112" transform="translate(-13.715 -46.267)"/><path d="m57.66 169.712c0-1.141.675-2.646 2.386-4.2a19.57 19.57 0 0 1 6.225-3.736c.311-2.075.26-4.771.986-6.743.778-2.075 2.646-3.32 3.787-3.32a.867.867 0 0 1 .881.519l.053.311c0 1.348-3.113 2.905-3.631 3.112-.416 1.712-.363 3.269-.726 5.6 5.654-1.66 12.813-3.994 14.783-5.706a.191.191 0 0 1 .157-.052.138.138 0 0 1 .155.155l-.052.157c-2.853 2.593-11.255 4.616-15.2 6.172-1.348 7.419-4.876 10.064-7.314 10.064a2.3 2.3 0 0 1 -2.491-2.335m8.508-7.159a18.813 18.813 0 0 0 -5.81 3.528c-1.453 1.5-1.971 2.7-1.971 3.527a1.606 1.606 0 0 0 .675 1.4 1.672 1.672 0 0 0 1.089.415c2.282 0 5.447-4.254 6.017-8.871m5.343-9.907v-.1a.4.4 0 0 0 -.415-.363c-.779 0-2.334 1.661-2.593 2.8.57-.26 3.008-1.556 3.008-2.334" transform="translate(-17.355 -45.664)"/><path d="m73.466 169.041a6.391 6.391 0 0 1 -.363-2.282c0-10.738 17.378-35.43 22.1-42.433-5.6-1.089-12.087-2.334-18.155-2.334-4.721 0-9.181.726-12.761 2.957l-.259.1a.191.191 0 0 1 -.208-.208.539.539 0 0 1 .259-.363c3.891-2.437 8.767-3.267 13.9-3.267 6.017 0 12.347 1.141 17.844 2.127 1.868-2.7 5.862-8.2 8.041-10.946a1.023 1.023 0 0 1 .726-.31c.414 0 .83.259.83.57a.558.558 0 0 1 -.156.363c-2.437 3.216-5.965 8.144-7.625 10.687.881.1 1.712.31 2.542.415a132.972 132.972 0 0 0 19.92 1.971c5.4 0 10.323-.674 12.969-2.749a.686.686 0 0 1 .363-.156.223.223 0 0 1 .208.207.451.451 0 0 1 -.208.363c-3.061 2.386-8.767 3.164-14.835 3.164a118.637 118.637 0 0 1 -18.675-1.763c-.934-.157-1.92-.363-2.956-.519-5.032 7-23.292 33.1-23.292 42.381a4.465 4.465 0 0 0 .312 1.764l.052.208c0 .207-.1.363-.259.363-.1 0-.208-.1-.311-.311" transform="translate(-19.208 -33.736)"/><path d="m110.084 168.678c-1.193 0-1.659-1.037-1.659-2.489a12.486 12.486 0 0 1 1.3-5.084c-2.023 1.5-3.58 2.075-4.669 2.075a2.032 2.032 0 0 1 -2.127-2.282c0-2.127 1.816-5.032 5.24-5.966a3.2 3.2 0 0 1 .986-.1 3.759 3.759 0 0 1 3.113 1.971l.726-1.089a.313.313 0 0 1 .311-.156.945.945 0 0 1 .831.726l-.052.155a36.662 36.662 0 0 0 -3.009 4.772 11.018 11.018 0 0 0 -1.66 5.032c0 1.037.363 1.608.882 1.66h.1c3.422 0 13.435-10.116 18.1-11.412l.207-.052a.237.237 0 0 1 .259.208c0 .052-.1.156-.207.26-6.121 2.542-14.732 11.671-18.52 11.774zm1.661-11.153c-.778-1.348-1.661-1.867-2.542-1.867-1.4 0-2.8 1.3-3.891 2.749a5.557 5.557 0 0 0 -1.453 3.061c0 .674.415 1.037 1.141 1.037 1.4 0 4.1-1.557 6.744-4.98" transform="translate(-30.98 -46.602)"/><path d="m168.367 157.321c-2.231 0-2.958-3.164-3.891-6.9-4.2 3.32-5.654 6.329-6.381 6.329h-.051c-.156-.052-.208-.208-.208-.414 0-2.076 5.032-10.842 10.946-19.3 6.432-9.181 13.7-17.533 16.911-17.533a2.228 2.228 0 0 1 .57.1 1.406 1.406 0 0 1 .934 1.453c0 5.447-19.556 22.618-23.032 25.159l-3.579 6.225c2.023-2.49 8.248-7.781 11.671-7.781a2.074 2.074 0 0 1 1.764.83 1.466 1.466 0 0 1 .208.624c0 1.037-1.4 2.282-3.269 2.9a18.073 18.073 0 0 1 -5.239.777h-.415c1.089 4.462 1.5 6.538 3.215 6.694h.1c3.527 0 12.5-9.235 16.5-10.635l.207-.053a.232.232 0 0 1 .208.157c0 .1-.1.207-.259.259-4.1 1.5-12.242 10.686-16.651 11.1zm18.208-36.26a1.089 1.089 0 0 0 -.312-.829.876.876 0 0 0 -.519-.157c-3.89 0-18.986 21.788-20.8 24.744 2.126-1.866 21.632-19.089 21.632-23.759m-13.176 25.212c0-.26-.207-.468-.621-.468l-.312.053a14.443 14.443 0 0 0 -2.333.83 43.639 43.639 0 0 0 -4.2 2.491c5.187-.157 7.47-2.024 7.47-2.905" transform="translate(-47.507 -35.97)"/><path d="m192.734 164.713a2.68 2.68 0 0 1 -1.5-2.7 7.465 7.465 0 0 1 .986-3.475c2.075-3.684 4.617-4.825 6.225-4.825.934 0 1.557.363 1.557.882 0 1.3-2.282 3.424-6.536 4.253a7.362 7.362 0 0 0 -.934 3.164 1.948 1.948 0 0 0 2.074 2.127h.26c3.891 0 10.946-4.409 15.614-7.886l.259-.1a.23.23 0 0 1 .207.155.375.375 0 0 1 -.207.311c-5.032 3.839-12.295 8.4-16.444 8.4a3.794 3.794 0 0 1 -1.557-.311m6.692-9.752a.448.448 0 0 0 -.157-.312.828.828 0 0 0 -.57-.207c-1.037 0-3.06.985-4.824 3.631 2.438-.207 5.551-2.127 5.551-3.112" transform="translate(-57.559 -46.267)"/><path d="m247.618 157.321c-2.23 0-2.955-3.164-3.89-6.9-4.2 3.32-5.655 6.329-6.38 6.329h-.048c-.155-.052-.207-.208-.207-.414 0-2.076 5.032-10.842 10.945-19.3 6.432-9.181 13.694-17.533 16.911-17.533a2.234 2.234 0 0 1 .57.1 1.406 1.406 0 0 1 .934 1.453c0 5.447-19.555 22.618-23.032 25.159l-3.579 6.225c2.024-2.49 8.249-7.781 11.672-7.781a2.071 2.071 0 0 1 1.764.83 1.483 1.483 0 0 1 .208.624c0 1.037-1.4 2.282-3.267 2.9a18.086 18.086 0 0 1 -5.24.777h-.414c1.089 4.462 1.5 6.538 3.216 6.694h.1c3.528 0 12.5-9.235 16.494-10.635l.209-.053a.23.23 0 0 1 .206.157c0 .1-.1.207-.259.259-4.1 1.5-12.242 10.686-16.65 11.1zm18.208-36.26a1.092 1.092 0 0 0 -.312-.829.875.875 0 0 0 -.519-.157c-3.89 0-18.985 21.788-20.8 24.744 2.127-1.866 21.632-19.089 21.632-23.759m-13.176 25.212c0-.26-.208-.468-.623-.468l-.311.053a14.429 14.429 0 0 0 -2.335.83 43.809 43.809 0 0 0 -4.2 2.491c5.187-.157 7.47-2.024 7.47-2.905" transform="translate(-71.362 -35.97)"/><path d="m272.365 166.571a1.566 1.566 0 0 1 -1.142-1.659c0-2.023 2.024-5.24 2.491-6.692a4.419 4.419 0 0 0 .208-1.089.907.907 0 0 0 -.312-.778.964.964 0 0 1 -.519-.881c0-1.246 1.712-3.164 3.009-3.164l.259.052a.342.342 0 0 1 .31.363c0 .779-1.608 2.542-2.386 3.009a1.839 1.839 0 0 1 .571 1.453c0 2.386-2.853 6.017-2.853 7.677a.8.8 0 0 0 .623.882 1.6 1.6 0 0 0 .519.052c3.526 0 14.524-7.936 17.378-9.907a.556.556 0 0 1 .362-.1c.1 0 .157 0 .157.1a.419.419 0 0 1 -.259.31c-3.113 2.18-13.8 10.479-17.793 10.479zm3.527-13.435c0-.052 0-.052-.052-.052a5.622 5.622 0 0 0 -1.815 2.127v.052a5.86 5.86 0 0 0 1.867-2.127" transform="translate(-81.636 -45.843)"/><path d="m300.7 166.825c-1.193 0-1.713-1.037-1.713-2.489a12.913 12.913 0 0 1 1.3-5.136c-2.023 1.5-3.58 2.127-4.669 2.127a2.073 2.073 0 0 1 -2.127-2.335c0-2.074 1.816-5.031 5.24-5.913a3.507 3.507 0 0 1 .986-.155c1.142 0 2.126.621 3.113 1.971l.675-1.09c.051-.1.155-.1.311-.1.31 0 .83.363.83.675l-.052.155a44.806 44.806 0 0 0 -2.957 4.824 11.415 11.415 0 0 0 -1.712 5.084c0 .986.415 1.556.934 1.556h.155c3.424 0 13.384-10.115 18.053-11.412h.1c.207 0 .311.052.311.155s-.051.157-.208.259c-6.069 2.543-14.68 11.672-18.467 11.827zm1.608-11.153c-.778-1.348-1.661-1.868-2.542-1.868-1.35 0-2.75 1.3-3.891 2.7a5.713 5.713 0 0 0 -1.453 3.061c0 .674.414 1.037 1.142 1.037 1.453 0 4.1-1.5 6.744-4.929m-4.98-3.942.052-.1a23.277 23.277 0 0 1 3.838-2.905l.259-.051c.468 0 1.038.414 1.038.621 0 .1-.052.1-.1.157-1.5.726-2.956 1.659-4.46 2.437l-.208.052c-.207 0-.414-.1-.414-.207" transform="translate(-88.336 -44.748)"/><path d="m314.558 169.712c0-1.141.675-2.646 2.386-4.2a19.574 19.574 0 0 1 6.224-3.736c.312-2.075.259-4.771.986-6.743.778-2.075 2.646-3.32 3.786-3.32a.87.87 0 0 1 .883.519l.051.311c0 1.348-3.112 2.905-3.631 3.112-.415 1.712-.363 3.269-.726 5.6 5.654-1.66 12.812-3.994 14.783-5.706a.19.19 0 0 1 .156-.052.137.137 0 0 1 .155.155l-.052.157c-2.853 2.593-11.257 4.616-15.2 6.172-1.348 7.419-4.876 10.064-7.314 10.064a2.3 2.3 0 0 1 -2.489-2.335m8.508-7.159a18.8 18.8 0 0 0 -5.81 3.528c-1.453 1.5-1.972 2.7-1.972 3.527a1.609 1.609 0 0 0 .674 1.4 1.674 1.674 0 0 0 1.089.415c2.282 0 5.447-4.254 6.018-8.871m5.343-9.907v-.1a.4.4 0 0 0 -.415-.363c-.779 0-2.335 1.661-2.595 2.8.57-.26 3.009-1.556 3.009-2.334" transform="translate(-94.679 -45.664)"/><path d="m340.159 166.486v-.155a21.528 21.528 0 0 1 1.919-4.254c1.764-3.009 3.632-5.861 3.943-6.225a.537.537 0 0 1 .414-.208.726.726 0 0 1 .675.572.391.391 0 0 1 -.1.207 67.659 67.659 0 0 0 -5.965 9.338c1.4-1.609 7.314-8.092 9.752-8.092a.858.858 0 0 1 .519.1c.156.1.364.157.364.519l-.053.364a12.277 12.277 0 0 0 -.259 2.491c0 2.282.675 4.565 2.594 4.617 3.787 0 11.36-7.263 14.525-9.026h.155c.1 0 .208.052.208.155 0 .052-.051.1-.155.156-3.632 2.437-11.048 9.441-14.94 9.441h-.1c-3.267-.1-3.735-3.787-3.735-6.381v-1.193c-3.527 2.023-7.418 6.276-9.077 7.937l-.26.1a.458.458 0 0 1 -.414-.468" transform="translate(-102.385 -46.848)"/><path d="m376.094 162.756a2.709 2.709 0 0 1 -1.5-2.748 7.377 7.377 0 0 1 .934-3.424c2.075-3.631 4.668-4.772 6.276-4.772.934 0 1.557.363 1.557.882 0 1.3-2.282 3.423-6.485 4.2a7.772 7.772 0 0 0 -.985 3.216 1.932 1.932 0 0 0 2.074 2.075h.259c3.891 0 10.893-4.409 15.614-7.885l.259-.1a.222.222 0 0 1 .207.207c0 .052-.051.156-.207.259-5.031 3.838-12.19 8.4-16.393 8.4a4.038 4.038 0 0 1 -1.608-.312m6.691-9.754a.446.446 0 0 0 -.157-.311.83.83 0 0 0 -.57-.157c-.985 0-3.06.882-4.824 3.632 2.49-.208 5.551-2.18 5.551-3.164m-3.632-2.386.052-.1a27.389 27.389 0 0 1 3.839-2.905l.207-.051c.467 0 1.089.466 1.089.726l-.1.1c-1.557.674-3.009 1.608-4.514 2.386l-.208.052c-.155 0-.363-.1-.363-.207" transform="translate(-112.748 -44.413)"/><path d="m396.834 192.684a2.051 2.051 0 0 1 -.726-1.815c0-3.736 4.513-11.309 5.5-12.918a90.439 90.439 0 0 1 13.28-16.755c.572-1.14 1.142-2.126 1.712-3.111 1.661-2.7 2.8-4.409 4.721-7.055a.756.756 0 0 1 .623-.208c.415 0 .83.155.83.363l-.1.156-4.927 7.365c4.3-3.994 7.365-5.549 9.13-5.549a1.6 1.6 0 0 1 1.764 1.815 8.665 8.665 0 0 1 -1.868 4.513c3.684 0 7.159-1.089 12.138-4.045a.51.51 0 0 1 .312-.1c.1 0 .156.052.156.1 0 .1-.052.207-.259.31-5.136 3.32-8.715 4.307-12.865 4.307 0 0-3.268 3.682-6.8 3.682h-.208a2.166 2.166 0 0 1 -2.023-1.919l.052-.468c.727-1.815 5.6-1.815 7.73-1.868 1.5-1.815 2.282-3.475 2.282-4.46a.879.879 0 0 0 -.986-.986c-1.089 0-3.009.934-5.966 3.32-3.112 2.439-2.489 1.971-3.631 3.216-2.8 4.565-14.214 32.318-19.193 32.318a1.138 1.138 0 0 1 -.675-.208m16.5-28.582a110.586 110.586 0 0 0 -11.049 14.369c-.416.726-5.395 9.493-5.395 12.553 0 .57.207.934.623.986h.1c3.58 0 13.28-23.084 15.719-27.908m11.2-3.943c-1.453.052-6.485.259-6.485 1.661a.908.908 0 0 0 .259.623 1.362 1.362 0 0 0 1.142.466c1.763 0 4.358-2.075 5.083-2.75" transform="translate(-119.225 -45.396)"/><path d="m449.729 162.278c-1.037-.518-1.453-1.608-1.453-3.06 0-5.032 5.292-14.421 8.3-19.09 7.574-11.671 18.415-20.7 21.786-20.7a.911.911 0 0 1 .779.311 1.018 1.018 0 0 1 .259.778c0 4.927-20.49 21.838-24.691 25.677-.571.726-4.98 9.6-4.98 13.487 0 1.089.363 1.764 1.244 1.764 5.551-.1 15.978-12.865 22.2-15.614l.259-.052a.237.237 0 0 1 .26.208.375.375 0 0 1 -.311.312c-5.032 1.919-17.585 16.185-22.721 16.185a2.024 2.024 0 0 1 -.934-.208m21.009-31.643c4.2-4.2 7.884-8.664 7.884-9.908l-.051-.208a.306.306 0 0 0 -.259-.1c-.882 0-3.475 1.4-7.47 5.084a91.1 91.1 0 0 0 -15.458 19.349c4.409-3.995 10.375-9.233 15.354-14.214" transform="translate(-134.927 -35.948)"/><path d="m479.758 164.713a2.679 2.679 0 0 1 -1.5-2.7 7.464 7.464 0 0 1 .985-3.475c2.075-3.684 4.617-4.825 6.225-4.825.933 0 1.556.363 1.556.882 0 1.3-2.282 3.424-6.536 4.253a7.362 7.362 0 0 0 -.934 3.164 1.949 1.949 0 0 0 2.075 2.127h.259c3.89 0 10.945-4.409 15.614-7.886l.259-.1a.231.231 0 0 1 .207.155.374.374 0 0 1 -.207.311c-5.032 3.839-12.294 8.4-16.444 8.4a3.791 3.791 0 0 1 -1.557-.311m6.692-9.752a.448.448 0 0 0 -.155-.312.831.831 0 0 0 -.57-.207c-1.038 0-3.061.985-4.824 3.631 2.437-.207 5.549-2.127 5.549-3.112" transform="translate(-143.95 -46.267)"/><path d="m486.416 169.041a6.407 6.407 0 0 1 -.362-2.282c0-10.738 17.377-35.43 22.1-42.433-5.6-1.089-12.086-2.334-18.156-2.334-4.72 0-9.182.726-12.761 2.957l-.259.1a.19.19 0 0 1 -.207-.208.539.539 0 0 1 .259-.363c3.89-2.437 8.767-3.267 13.9-3.267 6.018 0 12.347 1.141 17.846 2.127 1.867-2.7 5.861-8.2 8.04-10.946a1.026 1.026 0 0 1 .726-.31c.415 0 .83.259.83.57a.557.557 0 0 1 -.155.363c-2.437 3.216-5.965 8.144-7.626 10.687.882.1 1.712.31 2.543.415a132.961 132.961 0 0 0 19.92 1.971c5.394 0 10.322-.674 12.967-2.749a.688.688 0 0 1 .363-.156.223.223 0 0 1 .208.207.451.451 0 0 1 -.208.363c-3.06 2.386-8.766 3.164-14.836 3.164a118.622 118.622 0 0 1 -18.673-1.763c-.934-.157-1.92-.363-2.958-.519-5.031 7-23.291 33.1-23.291 42.381a4.478 4.478 0 0 0 .311 1.764l.052.208c0 .207-.1.363-.259.363-.1 0-.208-.1-.312-.311" transform="translate(-143.503 -33.736)"/><path d="m516.771 163.5a2.448 2.448 0 0 1 -1.193-2.282c0-3.216 3.58-8.4 4.98-9.96a.45.45 0 0 1 .311-.155.778.778 0 0 1 .727.675l-.1.207c-1.971 2.23-5.032 6.8-5.032 9.234a1.535 1.535 0 0 0 .778 1.5 1.73 1.73 0 0 0 .779.157c3.476 0 11.568-7.159 14.783-8.3l.26-.052c.155 0 .259.052.259.156s-.1.259-.363.31c-3.216 1.193-11.413 8.715-15.251 8.715a1.905 1.905 0 0 1 -.934-.208m5.863-13.643a.884.884 0 0 1 -.363-.675 1.277 1.277 0 0 1 .207-.621.722.722 0 0 1 .572-.259 1.191 1.191 0 0 1 1.037.985.839.839 0 0 1 -.157.468.646.646 0 0 1 -.621.259 1.293 1.293 0 0 1 -.674-.157" transform="translate(-155.185 -44.637)"/><path d="m163.531 244.545c.262 0 .471 0 .628.007s.293.01.406.02.218.015.314.02.218.006.367.006.259 0 .36-.006.208-.01.32-.02.249-.015.406-.02.367-.007.628-.007v.131a2.366 2.366 0 0 0 -.4.033.911.911 0 0 0 -.333.124.643.643 0 0 0 -.229.255.951.951 0 0 0 -.085.438v3.914a11.171 11.171 0 0 0 1.034-.981q.471-.511.929-1.1c.21-.262.417-.534.621-.819a8.024 8.024 0 0 0 .531-.83 1.051 1.051 0 0 0 .157-.524.4.4 0 0 0 -.254-.412 1.651 1.651 0 0 0 -.6-.1v-.131c.192 0 .349 0 .47.007l.315.013.249.013c.078 0 .175.007.287.007s.21 0 .288-.007l.256-.013.314-.013c.117 0 .277-.007.477-.007v.131a1.478 1.478 0 0 0 -.726.171 2.239 2.239 0 0 0 -.556.439 4.9 4.9 0 0 0 -.477.608c-.153.227-.312.458-.478.693q-.367.5-.7.923t-.714.884l3.5 4.044a2.534 2.534 0 0 0 .648.537 1.639 1.639 0 0 0 .818.2v.131q-.393 0-.642-.006l-.445-.013-.38-.013c-.123 0-.271-.006-.445-.006s-.321 0-.438.006l-.366.013c-.127 0-.273.009-.439.013s-.384.006-.654.006v-.131a1.537 1.537 0 0 0 .229-.019.981.981 0 0 0 .229-.066.457.457 0 0 0 .176-.138.368.368 0 0 0 .072-.236.628.628 0 0 0 -.032-.19.922.922 0 0 0 -.177-.268l-2.474-3.01-.6.537v2.539a.945.945 0 0 0 .085.438.638.638 0 0 0 .229.255.874.874 0 0 0 .333.124 2.363 2.363 0 0 0 .4.033v.131c-.261 0-.471 0-.628-.006s-.293-.01-.406-.02-.22-.015-.32-.02-.221-.007-.36-.007-.271 0-.367.007-.2.011-.314.02-.248.015-.406.02-.366.006-.628.006v-.131a2.363 2.363 0 0 0 .4-.033.874.874 0 0 0 .333-.124.652.652 0 0 0 .23-.255.964.964 0 0 0 .085-.438v-6.793a.97.97 0 0 0 -.085-.438.657.657 0 0 0 -.23-.255.911.911 0 0 0 -.333-.124 2.366 2.366 0 0 0 -.4-.033z" transform="translate(-49.221 -73.606)"/><path d="m183.931 244.32a4.932 4.932 0 0 1 1.78.321 4.536 4.536 0 0 1 1.479.916 4.337 4.337 0 0 1 1.01 1.443 4.963 4.963 0 0 1 0 3.777 4.317 4.317 0 0 1 -1 1.423 4.4 4.4 0 0 1 -1.478.9 5.1 5.1 0 0 1 -1.787.314 5.242 5.242 0 0 1 -1.859-.32 4.358 4.358 0 0 1 -1.478-.916 4.179 4.179 0 0 1 -.982-1.439 4.857 4.857 0 0 1 -.353-1.892 4.616 4.616 0 0 1 .353-1.826 4.331 4.331 0 0 1 .975-1.434 4.381 4.381 0 0 1 1.479-.935 5.085 5.085 0 0 1 1.865-.334m0 .236a2.594 2.594 0 0 0 -1.368.36 3.1 3.1 0 0 0 -.994.96 4.525 4.525 0 0 0 -.6 1.385 6.429 6.429 0 0 0 -.2 1.62 6.645 6.645 0 0 0 .2 1.673 4.282 4.282 0 0 0 .6 1.365 3 3 0 0 0 .994.922 2.711 2.711 0 0 0 1.368.339 2.594 2.594 0 0 0 1.316-.333 3.062 3.062 0 0 0 .988-.908 4.323 4.323 0 0 0 .622-1.366 6.686 6.686 0 0 0 0-3.371 4.492 4.492 0 0 0 -.622-1.378 3.09 3.09 0 0 0 -.988-.928 2.564 2.564 0 0 0 -1.316-.34" transform="translate(-53.955 -73.538)"/><path d="m202.936 244.949q-.007.242-.007.478a5.514 5.514 0 0 0 .033.562 5.757 5.757 0 0 1 .033.589h-.157a2.3 2.3 0 0 0 -.209-.741 2.618 2.618 0 0 0 -.438-.657 2.093 2.093 0 0 0 -.628-.468 1.779 1.779 0 0 0 -.792-.176 1.553 1.553 0 0 0 -.635.131 1.609 1.609 0 0 0 -.5.346 1.535 1.535 0 0 0 -.327.515 1.7 1.7 0 0 0 -.117.626 1.267 1.267 0 0 0 .248.8 2.155 2.155 0 0 0 .628.541 5.981 5.981 0 0 0 .825.4q.445.176.837.371a8.374 8.374 0 0 1 .765.445 2.96 2.96 0 0 1 .621.536 2.4 2.4 0 0 1 .419.7 2.6 2.6 0 0 1 .157.949 2.28 2.28 0 0 1 -.222 1.008 2.338 2.338 0 0 1 -.615.785 2.889 2.889 0 0 1 -.929.511 3.641 3.641 0 0 1 -1.178.182 3.013 3.013 0 0 1 -1.172-.215 6.12 6.12 0 0 1 -1.028-.556l-.3.51h-.131c0-.27 0-.484.013-.642s.013-.323.013-.5 0-.381-.013-.6-.013-.46-.013-.74h.157a3.035 3.035 0 0 0 .2.949 2.581 2.581 0 0 0 .484.792 2.4 2.4 0 0 0 .74.549 2.363 2.363 0 0 0 1.747.078 1.9 1.9 0 0 0 .628-.373 1.739 1.739 0 0 0 .419-.57 1.707 1.707 0 0 0 .151-.72 1.33 1.33 0 0 0 -.2-.719 2.18 2.18 0 0 0 -.5-.556 4.011 4.011 0 0 0 -.687-.432q-.381-.19-.733-.36c-.279-.131-.554-.275-.824-.432a3.634 3.634 0 0 1 -.726-.549 2.532 2.532 0 0 1 -.517-.726 2.254 2.254 0 0 1 -.2-.975 2.017 2.017 0 0 1 .2-.89 2.433 2.433 0 0 1 .544-.733 2.6 2.6 0 0 1 .785-.5 2.412 2.412 0 0 1 .929-.184 2.627 2.627 0 0 1 .956.177 3.229 3.229 0 0 1 .864.5l.275-.5h.131c0 .148 0 .3-.006.464" transform="translate(-59.63 -73.533)"/><path d="m211.488 253.137a.883.883 0 0 0 .333-.124.654.654 0 0 0 .229-.255.945.945 0 0 0 .086-.438v-6.793a.951.951 0 0 0 -.086-.438.66.66 0 0 0 -.229-.255.92.92 0 0 0 -.333-.124 2.368 2.368 0 0 0 -.4-.032v-.131c.244 0 .44 0 .588.007l.366.013.25.013c.07 0 .152.007.249.007a3.851 3.851 0 0 0 .432-.02 4.476 4.476 0 0 1 .47-.02l2.84 6.741 2.683-6.741a3.153 3.153 0 0 1 .393.02 3.569 3.569 0 0 0 .445.02c.115 0 .21 0 .289-.007l.268-.013.373-.013c.149 0 .35-.007.6-.007v.131a2.356 2.356 0 0 0 -.4.032.906.906 0 0 0 -.333.124.657.657 0 0 0 -.23.255.97.97 0 0 0 -.085.438v6.793a.964.964 0 0 0 .085.438.652.652 0 0 0 .23.255.87.87 0 0 0 .333.124 2.351 2.351 0 0 0 .4.033v.131q-.393 0-.628-.006c-.157 0-.292-.01-.405-.02s-.221-.015-.321-.02-.221-.007-.36-.007-.27 0-.367.007-.2.011-.314.02-.248.015-.405.02-.367.006-.628.006v-.131a2.369 2.369 0 0 0 .4-.033.867.867 0 0 0 .333-.124.64.64 0 0 0 .229-.255.945.945 0 0 0 .086-.438v-7.067l-3.208 8.062h-.025l-3.338-7.826v6.831a.945.945 0 0 0 .086.438.644.644 0 0 0 .229.255.883.883 0 0 0 .333.124 2.363 2.363 0 0 0 .4.033v.131c-.175 0-.315 0-.425-.006s-.2-.008-.282-.013l-.222-.013c-.071 0-.154-.006-.249-.006s-.179 0-.25.006l-.222.013c-.078 0-.171.009-.275.013s-.245.006-.419.006v-.131a2.363 2.363 0 0 0 .4-.033" transform="translate(-63.536 -73.606)"/><path d="m234.15 248.638a1.014 1.014 0 0 0 1.152-1.125h.131q0 .3-.006.5c0 .131-.009.24-.013.327s-.009.161-.013.223-.006.129-.006.2 0 .139.006.2.008.127.013.21.008.187.013.314.006.29.006.491h-.133a1.116 1.116 0 0 0 -.282-.8 1.155 1.155 0 0 0 -.87-.294h-.89v2.816a2.624 2.624 0 0 0 .085.747.714.714 0 0 0 .3.417 1.337 1.337 0 0 0 .57.175 8.386 8.386 0 0 0 .89.039q.471 0 .884-.032a1.965 1.965 0 0 0 .726-.189 1.267 1.267 0 0 0 .517-.487 2.119 2.119 0 0 0 .254-.916h.144l-.1 1.832q-.589.014-1.047.02t-.995.006q-1.112 0-1.793-.033t-1.1-.033c-.14 0-.26 0-.36.007l-.321.013c-.113 0-.248.009-.405.013s-.366.006-.628.006v-.131a2.354 2.354 0 0 0 .4-.033.882.882 0 0 0 .334-.124.648.648 0 0 0 .229-.255.954.954 0 0 0 .085-.438v-6.794a.96.96 0 0 0 -.085-.438.654.654 0 0 0 -.229-.255.919.919 0 0 0 -.334-.124 2.36 2.36 0 0 0 -.4-.032v-.131c.262 0 .469 0 .621.007l.394.013.307.013c.1 0 .214.007.354.007q.445 0 1.08-.04t1.42-.039q.511 0 .923.013t.936.026l.078 1.7h-.131a1.91 1.91 0 0 0 -.21-.791 1.156 1.156 0 0 0 -.458-.455 1.949 1.949 0 0 0 -.668-.207 6.143 6.143 0 0 0 -.837-.052c-.079 0-.171 0-.275.007l-.315.013c-.1 0-.2.01-.3.02s-.175.017-.236.026a.314.314 0 0 0 -.3.352v3.5z" transform="translate(-69.492 -73.589)"/><path d="m247.594 253.12a.882.882 0 0 0 .334-.124.656.656 0 0 0 .229-.256.957.957 0 0 0 .085-.439v-7.537q-.747-.026-1.073-.04c-.218-.008-.349-.013-.393-.013a1.33 1.33 0 0 0 -1.119.481 2.271 2.271 0 0 0 -.4 1.22h-.131l.065-1.91c.2-.009.387-.013.556-.013h.477q.523 0 .916.013c.262.009.495.015.7.02s.39.011.556.02.332.013.5.013.331 0 .5-.013.353-.016.562-.02.447-.01.714-.02.582-.013.949-.013h.5c.174 0 .362 0 .563.013l.078 1.91h-.131a3.139 3.139 0 0 0 -.117-.639 1.751 1.751 0 0 0 -.275-.554 1.352 1.352 0 0 0 -.465-.389 1.452 1.452 0 0 0 -.675-.145c-.043 0-.182.006-.419.02l-1.1.059v7.536a.957.957 0 0 0 .085.439.657.657 0 0 0 .229.256.878.878 0 0 0 .333.124 2.359 2.359 0 0 0 .4.033v.131q-.392 0-.628-.006c-.157 0-.292-.01-.406-.02s-.22-.015-.321-.02-.22-.007-.359-.007-.271 0-.367.007-.2.011-.314.02-.249.015-.405.02-.367.006-.628.006v-.131a2.359 2.359 0 0 0 .4-.033" transform="translate(-73.781 -73.589)"/><path d="m260.854 244.545c.262 0 .471 0 .628.007s.293.01.406.02.218.015.314.02.218.006.367.006.259 0 .36-.006.207-.01.32-.02.249-.015.406-.02.366-.007.628-.007v.131a2.366 2.366 0 0 0 -.4.033.911.911 0 0 0 -.333.124.65.65 0 0 0 -.229.255.96.96 0 0 0 -.085.438v6.793a.954.954 0 0 0 .085.438.645.645 0 0 0 .229.255.875.875 0 0 0 .333.124 2.363 2.363 0 0 0 .4.033v.131c-.261 0-.471 0-.628-.006s-.293-.01-.406-.02-.22-.015-.32-.02-.221-.007-.36-.007-.271 0-.367.007-.2.011-.314.02-.248.015-.406.02-.366.006-.628.006v-.131a2.363 2.363 0 0 0 .4-.033.875.875 0 0 0 .333-.124.645.645 0 0 0 .229-.255.954.954 0 0 0 .085-.438v-6.793a.96.96 0 0 0 -.085-.438.65.65 0 0 0 -.229-.255.911.911 0 0 0 -.333-.124 2.366 2.366 0 0 0 -.4-.033z" transform="translate(-78.515 -73.606)"/><path d="m278.547 244.66q0 .315-.006.6c0 .192-.007.384-.007.576 0 .209.007.428.02.654s.02.458.02.693h-.157a2.828 2.828 0 0 0 -.812-1.914 2.8 2.8 0 0 0 -2.042-.717 2.265 2.265 0 0 0 -1.067.288 3.069 3.069 0 0 0 -.981.849 4.584 4.584 0 0 0 -.713 1.385 5.982 5.982 0 0 0 -.275 1.9 6.547 6.547 0 0 0 .157 1.372 4.676 4.676 0 0 0 .517 1.359 3.208 3.208 0 0 0 .942 1.039 2.421 2.421 0 0 0 1.433.411 3.3 3.3 0 0 0 1.178-.2 2.568 2.568 0 0 0 .923-.589 2.81 2.81 0 0 0 .608-.923 3.463 3.463 0 0 0 .249-1.2h.157q0 .38-.02.805t-.02.674v.248q0 .118.006.262c0 .1.008.209.013.34s.01.293.02.484h-.131l-.315-.537q-.117.092-.34.236a3.8 3.8 0 0 1 -.556.287 4.647 4.647 0 0 1 -.779.25 4.451 4.451 0 0 1 -1.008.1 5.39 5.39 0 0 1 -1.813-.294 4.063 4.063 0 0 1 -1.439-.864 3.882 3.882 0 0 1 -.949-1.42 5.293 5.293 0 0 1 -.34-1.976 4.428 4.428 0 0 1 .347-1.748 4.491 4.491 0 0 1 .962-1.433 4.619 4.619 0 0 1 1.446-.975 4.519 4.519 0 0 1 1.813-.36 4.336 4.336 0 0 1 1.38.216 4.963 4.963 0 0 1 1.211.6l.236-.471z" transform="translate(-81.575 -73.538)"/><path d="m287.348 244.545c.262 0 .471 0 .628.007s.293.01.406.02.218.015.314.02.218.006.367.006.259 0 .36-.006.207-.01.32-.02.249-.015.406-.02.366-.007.628-.007v.131a2.365 2.365 0 0 0 -.4.033.91.91 0 0 0 -.333.124.65.65 0 0 0 -.229.255.96.96 0 0 0 -.085.438v3.914a11.164 11.164 0 0 0 1.034-.981q.471-.511.929-1.1c.21-.262.417-.534.621-.819a8.034 8.034 0 0 0 .531-.83 1.059 1.059 0 0 0 .157-.524.4.4 0 0 0 -.255-.412 1.645 1.645 0 0 0 -.595-.1v-.131c.191 0 .349 0 .47.007l.315.013.249.013c.078 0 .174.007.287.007s.21 0 .288-.007l.256-.013.314-.013c.117 0 .277-.007.477-.007v.131a1.477 1.477 0 0 0 -.726.171 2.238 2.238 0 0 0 -.556.439 4.891 4.891 0 0 0 -.477.608q-.229.341-.477.693-.367.5-.7.923t-.714.884l3.5 4.044a2.534 2.534 0 0 0 .648.537 1.638 1.638 0 0 0 .817.2v.131q-.392 0-.641-.006l-.445-.013-.38-.013c-.123 0-.271-.006-.445-.006s-.321 0-.438.006l-.366.013c-.127 0-.273.009-.439.013s-.384.006-.654.006v-.131a1.536 1.536 0 0 0 .229-.019.964.964 0 0 0 .229-.066.454.454 0 0 0 .177-.138.368.368 0 0 0 .072-.236.626.626 0 0 0 -.032-.19.952.952 0 0 0 -.177-.268l-2.474-3.01-.6.537v2.539a.954.954 0 0 0 .085.438.645.645 0 0 0 .229.255.874.874 0 0 0 .333.124 2.362 2.362 0 0 0 .4.033v.131q-.392 0-.628-.006t-.406-.02c-.113-.008-.22-.015-.32-.02s-.221-.007-.36-.007-.271 0-.367.007-.2.011-.314.02-.248.015-.406.02-.366.006-.628.006v-.131a2.363 2.363 0 0 0 .4-.033.874.874 0 0 0 .333-.124.645.645 0 0 0 .229-.255.953.953 0 0 0 .085-.438v-6.793a.959.959 0 0 0 -.085-.438.65.65 0 0 0 -.229-.255.911.911 0 0 0 -.333-.124 2.366 2.366 0 0 0 -.4-.033z" transform="translate(-86.489 -73.606)"/><path d="m307.321 247.37a1.014 1.014 0 0 0 1.151-1.126h.131c0 .2 0 .367-.007.5s-.009.24-.013.328-.009.161-.013.222-.007.129-.007.2 0 .139.007.2.008.126.013.209.008.188.013.315.007.29.007.491h-.131a1.12 1.12 0 0 0 -.281-.805 1.155 1.155 0 0 0 -.87-.294h-.89v2.823a2.655 2.655 0 0 0 .085.747.719.719 0 0 0 .3.417 1.356 1.356 0 0 0 .57.175 8.419 8.419 0 0 0 .89.038c.314 0 .609-.01.884-.032a1.975 1.975 0 0 0 .726-.188 1.263 1.263 0 0 0 .517-.487 2.116 2.116 0 0 0 .255-.915h.144l-.1 1.832c-.392.009-.741.015-1.047.02s-.637.006-.995.006q-1.111 0-1.792-.033c-.454-.021-.821-.033-1.1-.033-.14 0-.259 0-.359.007l-.321.013c-.113 0-.249.008-.405.013s-.367.007-.629.007v-.131a2.357 2.357 0 0 0 .4-.033.894.894 0 0 0 .333-.124.65.65 0 0 0 .229-.255.958.958 0 0 0 .085-.438v-6.793a.956.956 0 0 0 -.085-.438.655.655 0 0 0 -.229-.255.908.908 0 0 0 -.333-.124 2.362 2.362 0 0 0 -.4-.033v-.131c.262 0 .469 0 .622.006l.393.013.308.013c.1 0 .214.006.354.006q.444 0 1.079-.039t1.42-.039c.34 0 .648 0 .922.013s.587.017.936.026l.078 1.7h-.131a1.9 1.9 0 0 0 -.209-.791 1.154 1.154 0 0 0 -.458-.454 1.974 1.974 0 0 0 -.668-.208 6.158 6.158 0 0 0 -.837-.052c-.079 0-.171 0-.275.007l-.314.013c-.1 0-.206.011-.3.02s-.175.017-.236.026a.314.314 0 0 0 -.3.352v3.5zm1.165-6.859c.043-.035.082-.07.118-.1a.427.427 0 0 1 .17-.092.808.808 0 0 1 .261-.04.335.335 0 0 1 .288.144.542.542 0 0 1 .1.327.456.456 0 0 1 -.072.262.784.784 0 0 1 -.177.183 1.423 1.423 0 0 1 -.242.144c-.092.043-.181.087-.268.131l-2.147 1.06h-.209z" transform="translate(-91.516 -72.321)"/><path d="m331.789 244.949q-.007.242-.008.478c0 .166.012.353.033.562a5.581 5.581 0 0 1 .034.589h-.157a2.322 2.322 0 0 0 -.209-.741 2.636 2.636 0 0 0 -.438-.657 2.094 2.094 0 0 0 -.628-.468 1.781 1.781 0 0 0 -.792-.176 1.548 1.548 0 0 0 -.635.131 1.609 1.609 0 0 0 -.5.346 1.526 1.526 0 0 0 -.328.515 1.7 1.7 0 0 0 -.117.626 1.267 1.267 0 0 0 .249.8 2.154 2.154 0 0 0 .628.541 6.049 6.049 0 0 0 .824.4c.3.117.577.242.838.371a8.587 8.587 0 0 1 .765.445 3 3 0 0 1 .621.536 2.381 2.381 0 0 1 .419.7 2.574 2.574 0 0 1 .156.949 2.279 2.279 0 0 1 -.222 1.008 2.34 2.34 0 0 1 -.616.785 2.871 2.871 0 0 1 -.928.511 3.646 3.646 0 0 1 -1.179.182 3.017 3.017 0 0 1 -1.172-.215 6.117 6.117 0 0 1 -1.028-.556l-.3.51h-.129c0-.27 0-.484.012-.642s.014-.323.014-.5 0-.381-.014-.6-.012-.46-.012-.74h.157a3.034 3.034 0 0 0 .2.949 2.569 2.569 0 0 0 .485.792 2.4 2.4 0 0 0 .74.549 2.361 2.361 0 0 0 1.746.078 1.886 1.886 0 0 0 .629-.373 1.751 1.751 0 0 0 .419-.57 1.706 1.706 0 0 0 .15-.72 1.336 1.336 0 0 0 -.2-.719 2.195 2.195 0 0 0 -.5-.556 4.039 4.039 0 0 0 -.687-.432c-.254-.127-.5-.247-.733-.36-.279-.131-.554-.275-.824-.432a3.7 3.7 0 0 1 -.728-.549 2.541 2.541 0 0 1 -.516-.726 2.233 2.233 0 0 1 -.2-.975 2 2 0 0 1 .2-.89 2.437 2.437 0 0 1 .542-.733 2.623 2.623 0 0 1 .786-.5 2.409 2.409 0 0 1 .928-.184 2.626 2.626 0 0 1 .956.177 3.214 3.214 0 0 1 .863.5l.275-.5h.131c0 .148 0 .3-.006.464" transform="translate(-98.414 -73.533)"/><path d="m342.184 253.12a.874.874 0 0 0 .333-.124.658.658 0 0 0 .229-.256.957.957 0 0 0 .085-.439v-7.537q-.747-.026-1.074-.04t-.393-.013a1.329 1.329 0 0 0 -1.118.481 2.264 2.264 0 0 0 -.4 1.22h-.131l.065-1.91q.3-.014.556-.013h.478q.523 0 .916.013c.262.009.495.015.7.02s.391.011.556.02.331.013.5.013.332 0 .5-.013.353-.016.563-.02.447-.01.713-.02.582-.013.949-.013h.5q.261 0 .562.013l.079 1.91h-.131a3.088 3.088 0 0 0 -.117-.639 1.736 1.736 0 0 0 -.275-.554 1.35 1.35 0 0 0 -.464-.389 1.452 1.452 0 0 0 -.675-.145c-.044 0-.183.006-.419.02l-1.1.059v7.536a.957.957 0 0 0 .085.439.656.656 0 0 0 .229.256.882.882 0 0 0 .334.124 2.348 2.348 0 0 0 .4.033v.131c-.261 0-.471 0-.628-.006s-.293-.01-.407-.02-.22-.015-.32-.02-.22-.007-.36-.007-.27 0-.366.007-.2.011-.315.02-.248.015-.405.02-.366.006-.628.006v-.131a2.365 2.365 0 0 0 .4-.033" transform="translate(-102.252 -73.589)"/><path d="m362.951 250.3a4.216 4.216 0 0 1 -.222 1.472 2.446 2.446 0 0 1 -.628.969 2.388 2.388 0 0 1 -.981.537 4.693 4.693 0 0 1 -1.283.164 7.821 7.821 0 0 1 -1.263-.1 3.012 3.012 0 0 1 -1.139-.426 2.339 2.339 0 0 1 -.818-.929 3.576 3.576 0 0 1 -.315-1.629v-4.829a.956.956 0 0 0 -.085-.438.65.65 0 0 0 -.229-.255.9.9 0 0 0 -.333-.124 2.365 2.365 0 0 0 -.4-.033v-.131c.261 0 .471 0 .628.006s.292.011.405.02.218.015.314.02.218.006.366.006.259 0 .361-.006.207-.011.32-.02.249-.015.406-.02.366-.006.628-.006v.131a2.361 2.361 0 0 0 -.4.033.9.9 0 0 0 -.333.124.648.648 0 0 0 -.229.255.938.938 0 0 0 -.086.438v4.935a4.106 4.106 0 0 0 .131 1.073 2.051 2.051 0 0 0 .432.83 1.914 1.914 0 0 0 .778.531 3.328 3.328 0 0 0 1.185.183 2.517 2.517 0 0 0 1.871-.674 2.646 2.646 0 0 0 .668-1.943v-4.935a.946.946 0 0 0 -.086-.438.654.654 0 0 0 -.229-.255.9.9 0 0 0 -.333-.124 2.375 2.375 0 0 0 -.4-.033v-.131c.175 0 .314 0 .419.006l.275.013.222.013c.07 0 .153.006.249.006s.178 0 .249-.006l.222-.013.282-.013c.109 0 .25-.006.425-.006v.131a2.355 2.355 0 0 0 -.4.033.907.907 0 0 0 -.334.124.654.654 0 0 0 -.229.255.955.955 0 0 0 -.085.438z" transform="translate(-106.929 -73.606)"/><path d="m372.556 244.527c.262 0 .472 0 .628.007l.412.013.32.013c.1 0 .219.007.366.007q.419 0 .949-.04t1-.038a5.434 5.434 0 0 1 1.826.294 4.174 4.174 0 0 1 1.439.851 3.847 3.847 0 0 1 .949 1.367 4.747 4.747 0 0 1 .34 1.845 4.572 4.572 0 0 1 -1.113 3.311 4.4 4.4 0 0 1 -3.31 1.152q-.471 0-1.041-.033c-.38-.021-.726-.033-1.041-.033-.147 0-.27 0-.366.007s-.2.009-.314.013-.249.009-.405.013-.371.007-.642.007v-.131a2.286 2.286 0 0 0 .4-.033.894.894 0 0 0 .334-.124.653.653 0 0 0 .229-.256.955.955 0 0 0 .085-.438v-6.791a.956.956 0 0 0 -.085-.438.658.658 0 0 0 -.229-.256.918.918 0 0 0 -.334-.124 2.287 2.287 0 0 0 -.4-.033zm2.382 7.175a3.167 3.167 0 0 0 .053.627.888.888 0 0 0 .2.425.856.856 0 0 0 .419.242 2.75 2.75 0 0 0 .733.078 2.613 2.613 0 0 0 1.328-.32 2.681 2.681 0 0 0 .916-.869 3.928 3.928 0 0 0 .531-1.294 7.16 7.16 0 0 0 .17-1.594 7.04 7.04 0 0 0 -.177-1.582 4.206 4.206 0 0 0 -.563-1.365 3.059 3.059 0 0 0 -.988-.96 2.719 2.719 0 0 0 -1.439-.366q-.183 0-.373.006c-.126 0-.277.015-.452.033a.474.474 0 0 0 -.254.117.434.434 0 0 0 -.1.326z" transform="translate(-112.136 -73.589)"/><path d="m389.614 244.545c.262 0 .472 0 .628.007s.292.01.405.02.218.015.315.02.218.006.366.006.259 0 .36-.006.208-.01.321-.02.248-.015.405-.02.366-.007.628-.007v.131a2.36 2.36 0 0 0 -.4.033.91.91 0 0 0 -.334.124.655.655 0 0 0 -.229.255.961.961 0 0 0 -.085.438v6.793a.955.955 0 0 0 .085.438.65.65 0 0 0 .229.255.874.874 0 0 0 .334.124 2.357 2.357 0 0 0 .4.033v.131q-.393 0-.628-.006t-.405-.02c-.113-.008-.221-.015-.321-.02s-.221-.007-.36-.007-.271 0-.366.007-.2.011-.315.02-.248.015-.405.02-.366.006-.628.006v-.131a2.351 2.351 0 0 0 .4-.033.882.882 0 0 0 .334-.124.651.651 0 0 0 .229-.255.956.956 0 0 0 .085-.438v-6.793a.962.962 0 0 0 -.085-.438.656.656 0 0 0 -.229-.255.919.919 0 0 0 -.334-.124 2.354 2.354 0 0 0 -.4-.033z" transform="translate(-117.271 -73.606)"/><path d="m404.452 244.32a4.935 4.935 0 0 1 1.78.321 4.526 4.526 0 0 1 1.478.916 4.317 4.317 0 0 1 1.015 1.443 4.963 4.963 0 0 1 0 3.777 4.315 4.315 0 0 1 -1.007 1.426 4.412 4.412 0 0 1 -1.478.9 5.1 5.1 0 0 1 -1.787.314 5.238 5.238 0 0 1 -1.858-.32 4.353 4.353 0 0 1 -1.479-.916 4.2 4.2 0 0 1 -.982-1.439 4.857 4.857 0 0 1 -.353-1.892 4.616 4.616 0 0 1 .353-1.826 4.287 4.287 0 0 1 2.454-2.369 5.085 5.085 0 0 1 1.865-.334m0 .236a2.591 2.591 0 0 0 -1.367.36 3.111 3.111 0 0 0 -.995.96 4.525 4.525 0 0 0 -.6 1.385 6.431 6.431 0 0 0 -.2 1.62 6.647 6.647 0 0 0 .2 1.673 4.283 4.283 0 0 0 .6 1.365 3 3 0 0 0 .995.922 2.709 2.709 0 0 0 1.367.339 2.594 2.594 0 0 0 1.316-.333 3.057 3.057 0 0 0 .988-.908 4.336 4.336 0 0 0 .622-1.366 6.7 6.7 0 0 0 0-3.371 4.505 4.505 0 0 0 -.622-1.378 3.085 3.085 0 0 0 -.988-.928 2.564 2.564 0 0 0 -1.316-.34" transform="translate(-120.33 -73.538)"/></g></g></svg>