<svg id="Menu_back" xmlns="http://www.w3.org/2000/svg" xmlns:xlink="http://www.w3.org/1999/xlink" width="82" height="82" viewBox="0 0 82 82">
  <defs>
    <clipPath id="clip-path">
      <rect id="Rectangle_320" data-name="Rectangle 320" width="82" height="82" fill="none"/>
    </clipPath>
  </defs>
  <g id="Group_818" data-name="Group 818" clip-path="url(#clip-path)">
    <path id="Path_1480" data-name="Path 1480" d="M82,41A41,41,0,1,1,41,0,41,41,0,0,1,82,41" transform="translate(0 0)" fill="#e2ddd6"/>
    <path id="Path_1481" data-name="Path 1481" d="M31.973,55.456h-.627q1.033-3.526,3.645-3.527a3.845,3.845,0,0,1,2.493.95,2.966,2.966,0,0,0,1.7.8,1.261,1.261,0,0,0,1.272-1q.237-.746.712-.747a.4.4,0,0,1,.457.441q0,.576-1.321,1.976t-6.647,5.875A27.45,27.45,0,0,0,28.9,64.952a2.768,2.768,0,0,1,1.612-.458q1.677,0,4.544,2.153A5.758,5.758,0,0,0,38.2,68.072q2,0,2.085-2.187h.61a4.908,4.908,0,0,1-1.008,3.255,3.122,3.122,0,0,1-2.484,1.2,3.4,3.4,0,0,1-2.06-.6,13.417,13.417,0,0,1-2.23-2.4,10.051,10.051,0,0,0-1.476-1.653,1.973,1.973,0,0,0-1.271-.449,2.231,2.231,0,0,0-2.086,1.322Q28.038,67,27.8,67q-.338,0-.339-.509a5.36,5.36,0,0,1,1.476-2.865,48.86,48.86,0,0,1,6.257-5.748q2.493-2.035,4.155-3.561a8.973,8.973,0,0,1-.984.085q-1.052,0-2.1-.1-1.17-.119-1.645-.119a5.975,5.975,0,0,0-1.5.186,1.8,1.8,0,0,0-1.144,1.085" transform="translate(-10.168 -19.226)" fill="#707070"/>
    <path id="Path_1482" data-name="Path 1482" d="M49.479,56.624H48.7l3.2-5.138a36.2,36.2,0,0,0,1.849-3.171A22.509,22.509,0,0,0,54.769,45.5l.237-.814h2.035l-1.153,3.8-1.424,4q2.3-3.239,4.374-3.239a2.611,2.611,0,0,1,2.136,1.162,4.669,4.669,0,0,1,.882,2.908,12.955,12.955,0,0,1-1.051,4.7,11.314,11.314,0,0,1-2.976,4.358,5.824,5.824,0,0,1-3.84,1.713,2.192,2.192,0,0,1-2.324-1.73l-1.984,6.562a8.02,8.02,0,0,0-.373,1.493.618.618,0,0,0,.246.492,2.873,2.873,0,0,0,1.432.2h.763l-.237.746H44.425l.237-.746h.373a4.279,4.279,0,0,0,1.78-.2,6.119,6.119,0,0,0,.882-2.12l3.527-11.65q1.12-3.644,2.578-7.444-.17.238-.9,1.527l-.542.865Zm3.136,2.595a8.679,8.679,0,0,0-.458,2.17,2.2,2.2,0,0,0,.458,1.408,1.553,1.553,0,0,0,1.289.576,3.591,3.591,0,0,0,2.535-1.416,13.2,13.2,0,0,0,2.374-4.714,17.785,17.785,0,0,0,1.077-4.96,3.122,3.122,0,0,0-.339-1.628,1.122,1.122,0,0,0-1.018-.542A4.3,4.3,0,0,0,56.1,51.452Q54.582,52.792,53.293,57Z" transform="translate(-16.448 -16.545)" fill="#707070"/>
    <path id="Path_1483" data-name="Path 1483" d="M82.38,57.482h.814q-2.154,4.8-5.527,4.8a2.9,2.9,0,0,1-2.264-.975,3.8,3.8,0,0,1-.873-2.637,12.288,12.288,0,0,1,1.127-4.748,13.137,13.137,0,0,1,3.2-4.561q2.078-1.917,3.62-1.916a1.756,1.756,0,0,1,1.442.6,2.294,2.294,0,0,1,.491,1.5,4.828,4.828,0,0,1-1.831,3.519,19.431,19.431,0,0,1-5.494,3.248,9.127,9.127,0,0,0-.475,2.8,2.62,2.62,0,0,0,.424,1.628,1.5,1.5,0,0,0,1.255.542q2.323,0,4.086-3.8m-5.036-2.035a13.3,13.3,0,0,0,3.933-2.713A4.77,4.77,0,0,0,83.024,49.6a1.471,1.471,0,0,0-.263-.958.971.971,0,0,0-.788-.314q-1.017,0-2.4,1.976a16.317,16.317,0,0,0-2.229,5.146m6.7-11.48,5.324-4.155h.645l-6.342,6.631H81.989l-.271-6.631h.339Z" transform="translate(-27.594 -14.74)" fill="#707070"/>
    <path id="Path_1484" data-name="Path 1484" d="M100.391,49.663l-.237.746H97.61l-2.239,7.41a27.5,27.5,0,0,0-1.119,4.24.942.942,0,0,0,.178.618.637.637,0,0,0,.517.212q.611,0,1.595-1.153a11.994,11.994,0,0,0,1.763-2.9h.746a11.668,11.668,0,0,1-2.365,3.858,3.691,3.691,0,0,1-2.433,1.331,1.72,1.72,0,0,1-1.382-.611,2.3,2.3,0,0,1-.518-1.543,22.358,22.358,0,0,1,1.052-4.24l2.188-7.223h-2.34l.237-.746h2.323l1.561-5.138h2.034l-1.559,5.138Z" transform="translate(-34.193 -16.485)" fill="#707070"/>
  </g>
</svg>
