<svg id="Menu_icon" xmlns="http://www.w3.org/2000/svg" xmlns:xlink="http://www.w3.org/1999/xlink" width="82" height="82" viewBox="0 0 82 82">
  <defs>
    <clipPath id="clip-path">
      <rect id="Rectangle_5" data-name="Rectangle 5" width="82" height="82" fill="#d0b4a2"/>
    </clipPath>
  </defs>
  <rect id="Rectangle_8" data-name="Rectangle 8" width="73" height="22" transform="translate(5 30)" fill="#fff"/>
  <g id="Group_8" data-name="Group 8" clip-path="url(#clip-path)">
    <path id="Path_59" data-name="Path 59" d="M349.767,325.458a1.543,1.543,0,0,0-.276-1.006,1.02,1.02,0,0,0-.828-.329q-1.068,0-2.519,2.074a17.121,17.121,0,0,0-2.341,5.4,13.976,13.976,0,0,0,4.13-2.848,5.008,5.008,0,0,0,1.833-3.293" transform="translate(-308.571 -290.907)" fill="#d0b4a2"/>
    <path id="Path_60" data-name="Path 60" d="M41,0A41,41,0,1,0,82,41,41,41,0,0,0,41,0M28.994,46.762a3.612,3.612,0,0,1-2.376,1.1,1.949,1.949,0,0,1-1.362-.552,2.027,2.027,0,0,1-.6-1.566,13.413,13.413,0,0,1,.872-3.453l1.673-4.842a12.368,12.368,0,0,0,.748-2.723,1.37,1.37,0,0,0-.24-.881.877.877,0,0,0-.721-.294q-1.531,0-3.6,2.545t-4.316,9.968l-.481,1.549H16.472l2.9-9.541a14.744,14.744,0,0,0,.748-3.364,1.308,1.308,0,0,0-.2-.8.746.746,0,0,0-.632-.267q-1.246,0-3.364,2.626t-4.218,9.6l-.534,1.744H9.032l3.257-10.68a16.035,16.035,0,0,0,.659-2.581.76.76,0,0,0-.1-.427.352.352,0,0,0-.312-.142,2.136,2.136,0,0,0-1.237.747,9.035,9.035,0,0,0-1.54,2.136h-.8a9.705,9.705,0,0,1,2.1-2.964,3.5,3.5,0,0,1,2.207-1.166A1.372,1.372,0,0,1,14.363,33a1.84,1.84,0,0,1,.4,1.246,15.744,15.744,0,0,1-1.086,4.4,15.8,15.8,0,0,1,2.973-4.325A4.892,4.892,0,0,1,19.872,32.5a1.91,1.91,0,0,1,1.54.6,2.7,2.7,0,0,1,.507,1.789,10.9,10.9,0,0,1-.73,3.524,13.531,13.531,0,0,1,3.2-4.5A5.024,5.024,0,0,1,27.454,32.5a2.361,2.361,0,0,1,1.727.685,2.5,2.5,0,0,1,.694,1.86,5.179,5.179,0,0,1-.116,1.2q-.116.472-.863,2.714l-1.388,4a14.107,14.107,0,0,0-.854,3.008.915.915,0,0,0,.169.6.6.6,0,0,0,.49.2,2.069,2.069,0,0,0,1.353-.694A9.738,9.738,0,0,0,30.213,44h.765a8.447,8.447,0,0,1-1.985,2.759m5.918-.516a1.569,1.569,0,0,0,1.317.57q2.438,0,4.29-3.987h.854q-2.261,5.037-5.8,5.037a3.042,3.042,0,0,1-2.376-1.023,4,4,0,0,1-.917-2.768,12.906,12.906,0,0,1,1.184-4.984A13.792,13.792,0,0,1,36.826,34.3q2.18-2.011,3.8-2.011a1.841,1.841,0,0,1,1.513.632,2.41,2.41,0,0,1,.516,1.575,5.069,5.069,0,0,1-1.922,3.693A20.374,20.374,0,0,1,34.966,41.6a9.591,9.591,0,0,0-.5,2.937,2.747,2.747,0,0,0,.445,1.709M55.32,46.9a3.464,3.464,0,0,1-2.27.961,2.066,2.066,0,0,1-1.379-.49,1.793,1.793,0,0,1-.578-1.451,12.491,12.491,0,0,1,.819-3.168l1.9-5.429a12.147,12.147,0,0,0,.765-2.884,1.267,1.267,0,0,0-.258-.872,1.018,1.018,0,0,0-.792-.285q-1.353,0-3.533,3.177a30.406,30.406,0,0,0-3.747,8.321l-.872,2.848H43.207l3.133-10.11a22.3,22.3,0,0,0,.854-3.2.745.745,0,0,0-.107-.445.4.4,0,0,0-.338-.142q-1.051,0-2.492,2.6h-.819q2.225-4.04,4.219-4.04a1.276,1.276,0,0,1,1.041.418,1.963,1.963,0,0,1,.347,1.273,15.434,15.434,0,0,1-1.193,4.735q3.221-6.425,6.265-6.426a2.49,2.49,0,0,1,1.709.65,2.406,2.406,0,0,1,.73,1.9,11.765,11.765,0,0,1-.73,2.99l-1.9,5.678a19.6,19.6,0,0,0-.765,2.563.688.688,0,0,0,.169.507.663.663,0,0,0,.49.169,1.949,1.949,0,0,0,1.3-.685,9.811,9.811,0,0,0,1.477-2.038H57.5A10.594,10.594,0,0,1,55.32,46.9m13.626.961a1.678,1.678,0,0,1-1.308-.481,2.084,2.084,0,0,1-.436-1.442,16.124,16.124,0,0,1,.961-4.325Q65.047,47.865,62,47.865a2.279,2.279,0,0,1-1.762-.694,2.449,2.449,0,0,1-.641-1.727,12.2,12.2,0,0,1,.8-3.364l2.189-6.39a9.013,9.013,0,0,0,.481-1.709.409.409,0,0,0-.463-.463q-1.121,0-2.456,3.008H59.3a8.757,8.757,0,0,1,1.869-3.053,3.28,3.28,0,0,1,2.278-1.184,1.718,1.718,0,0,1,1.184.436,1.663,1.663,0,0,1,.489,1.308,10.2,10.2,0,0,1-.623,2.492l-2.243,6.586a10.607,10.607,0,0,0-.641,2.528,1.234,1.234,0,0,0,.249.837.917.917,0,0,0,.73.285q1.566,0,3.72-3.329a40.157,40.157,0,0,0,4.13-9.9l.3-1.015h2.136L69.764,42.739a17.126,17.126,0,0,0-.748,3.008,1.053,1.053,0,0,0,.178.667.641.641,0,0,0,.534.222q1.353,0,2.563-2.937h.748q-1.513,4.165-4.094,4.165" fill="#d0b4a2"/>
  </g>
</svg>
