<svg id="Podpis_-_mozna_doda_svuj" data-name="Podpis - mozna doda svuj" xmlns="http://www.w3.org/2000/svg" xmlns:xlink="http://www.w3.org/1999/xlink" width="192.624" height="109.615" viewBox="0 0 192.624 109.615">
  <defs>
    <clipPath id="clip-path">
      <rect id="Rectangle_330" data-name="Rectangle 330" width="192.624" height="109.615" transform="translate(0 0)" fill="none"/>
    </clipPath>
  </defs>
  <g id="Group_834" data-name="Group 834" transform="translate(0 0)" clip-path="url(#clip-path)">
    <path id="Path_1511" data-name="Path 1511" d="M27.693,48.138a14.439,14.439,0,0,1,3.867.41,8.869,8.869,0,0,1,2.139.864,4.115,4.115,0,0,1,1.047.865.648.648,0,0,0,.681.318,1.06,1.06,0,0,0,.729-.637q.273-.546-1.183-1.637a7.026,7.026,0,0,0-3.64-1.547A30.225,30.225,0,0,0,27.42,46.5,35.558,35.558,0,0,0,18,47.729q-1.776.5-2.822.864a10.6,10.6,0,0,1-1.137.364,15.151,15.151,0,0,1,1.683-1.592q1.865-1.685,5.142-4.687t7.78-6.961q4.5-3.96,9.691-8.463t10.739-9.191q5.55-4.686,11.011-9.146a.573.573,0,0,0,.182-.819.825.825,0,0,0-.728-.455.368.368,0,0,0-.273.092q-6.006,4.458-11.876,9.327T36.2,26.572q-5.325,4.64-9.874,8.781T18.5,42.541q-3.276,3.051-5.1,4.733t-1.638,1.5q.456-1.094.909-2.276c.305-.667.592-1.365.866-2.092s.559-1.425.864-2.094q3.549-8.645,6.87-15.652t5.915-12.011q2.6-5,4.141-7.872a20.759,20.759,0,0,0,1.547-3.14.615.615,0,0,0-.273-.546.984.984,0,0,0-.546-.182Q31.7,3,30.422,5.095t-3.139,5.643q-1.866,3.547-4.14,8.189T18.5,28.755q-2.369,5.187-4.732,10.6T9.493,49.867q-.455,1.55-.728,1.638-3.093,2-4.823,3.321a24.272,24.272,0,0,0-3,2.685Q-.336,58.876.12,59.6a.707.707,0,0,0,.728.455A4.431,4.431,0,0,0,3.305,58.74q1.549-1.319,4.186-3.686-.728,2-1.275,3.549T5.034,62.016Q4.4,63.882,3.851,65.565t-.91,2.957a7.871,7.871,0,0,0-.364,1.729q0,.728.91.728.365,0,.637-.591a24.812,24.812,0,0,0,.864-2.548q.592-1.959,1.82-5.552t3.5-9.6a34.1,34.1,0,0,1,8.372-3.366,35.709,35.709,0,0,1,9.009-1.184" fill="#707070"/>
    <path id="Path_1512" data-name="Path 1512" d="M61.724,30.758a.886.886,0,0,0-.045-.819A.73.73,0,0,0,61,29.485a.374.374,0,0,0-.273.09.85.85,0,0,0,.091,1.547q.728,0,.91-.364" fill="#707070"/>
    <path id="Path_1513" data-name="Path 1513" d="M94.118,30.485a3.234,3.234,0,0,0-1.319.363c-.517.243-.9.426-1.139.546a.779.779,0,0,0-.318.865.582.582,0,0,0,.592.5,3.144,3.144,0,0,0,1.638-.409,3.7,3.7,0,0,0,1.273-.773.533.533,0,0,0,.092-.5,1.221,1.221,0,0,0-.274-.409.744.744,0,0,0-.545-.182" fill="#707070"/>
    <path id="Path_1514" data-name="Path 1514" d="M65.367,51.784c.292-.563.569-1.092.834-1.593a2.832,2.832,0,0,0,.528-.414,8.287,8.287,0,0,0,1.183-1.456,5.807,5.807,0,0,0,.674-2.517c.131-.248.229-.444.284-.572a.423.423,0,0,0-.045-.5.728.728,0,0,0-.271-.35c0-.116,0-.208,0-.247a23.4,23.4,0,0,1,2.457-1.911q1.274-.909,3.048-2.139c.794-.549,1.684-1.121,2.656-1.711q-.756,2.018-1.382,3.9a50.92,50.92,0,0,0-1.73,6.279q-.5,2.592.5,2.957a1.009,1.009,0,0,0,.454.091q1.458,0,4.187-3.5,2-2.559,5.549-7.094a1.274,1.274,0,0,0,.137.223.768.768,0,0,0,.774.273,3.824,3.824,0,0,0,1.41-.682,21.3,21.3,0,0,0,1.911-1.5q1.045-.909,2.093-1.866a24.021,24.021,0,0,1,2.048-1.683q-.273.819-.82,2.092t-1.136,2.458q-.594,1.185-1.047,2.093T89.113,43.5q-.458.456-2.731,2.457A39.4,39.4,0,0,0,81.2,51.87q-.728.912-1.774,2.548a33.089,33.089,0,0,0-1.867,3.321,11.352,11.352,0,0,0-1.046,3.094,1.518,1.518,0,0,0,.865,1.866,1.01,1.01,0,0,0,.455.091,3.7,3.7,0,0,0,2.457-1.456,26.978,26.978,0,0,0,2.866-3.776q1.5-2.32,3.1-5.233t3.138-5.733a15.677,15.677,0,0,1,.956-1.729,5.837,5.837,0,0,1,1.229-1.137q.908-.683,2.866-1.957,1.44-.937,3.994-2.717c-.041.1-.088.207-.128.305a11.117,11.117,0,0,0-.546,1.593A1.235,1.235,0,0,0,98.3,42.5a.526.526,0,0,0,.364.091,1.455,1.455,0,0,0,.637-.182,11.443,11.443,0,0,0,1.183-1.092q.908-.909,1.865-1.911t1.73-1.774a4.393,4.393,0,0,1,.864-.774q.09.092.046.728a5.313,5.313,0,0,0,.091,1.365,3.366,3.366,0,0,0,.591,1.365,1.664,1.664,0,0,0,1.456.637,6.286,6.286,0,0,0,2.457-.819,15.491,15.491,0,0,0,1.492-1.007,3.39,3.39,0,0,0-.127,1.189q.185,1.55,1.548,1.547a3.068,3.068,0,0,0,1.364-.364,10.066,10.066,0,0,0,1.365-.819,12.412,12.412,0,0,0,1.138-.91,4.144,4.144,0,0,1,.682-.546,3.592,3.592,0,0,0,.182,1.638A2.863,2.863,0,0,0,118,42.088a3.107,3.107,0,0,0,1.774.773,2.225,2.225,0,0,1,.41.045,1.976,1.976,0,0,0,.409.046,11.336,11.336,0,0,0,3.277-.592q1.91-.59,3.912-1.41t3.777-1.729q1.774-.909,2.866-1.456a.816.816,0,0,0,.5-.774q.047-.59-.864-.955-1.365.637-3.184,1.547T127.1,39.312q-1.959.819-3.731,1.365a10.456,10.456,0,0,1-2.957.546q-1.365,0-1.639-.91a3.5,3.5,0,0,1,.364-2.047,9.17,9.17,0,0,1,1.275-2.23,2.005,2.005,0,0,0,.5-.637,1.507,1.507,0,0,0,.046-.364c-.123-.6-.426-.91-.911-.91a1.241,1.241,0,0,0-.91.546,8.708,8.708,0,0,1-.91,1q-.729.729-1.728,1.638t-2.048,1.729a6.544,6.544,0,0,1-1.866,1.092,9.6,9.6,0,0,1,.546-1.547,18.321,18.321,0,0,1,.911-1.593,5.884,5.884,0,0,1,1.546-1.592,3.76,3.76,0,0,1,.728-.546,1.575,1.575,0,0,1,.638-.273q.18,0,.409.455a.725.725,0,0,0,.682.455.369.369,0,0,0,.273-.091q.636-.273.227-1.365a1.623,1.623,0,0,0-1.683-1.092H116.5a4.6,4.6,0,0,0-1.957,1.046,11.38,11.38,0,0,0-1.866,1.957c-.023.032-.04.066-.064.1l-.027-.007a4.117,4.117,0,0,0-.956.637,14.527,14.527,0,0,1-1.592,1.092q-.911.546-1.775,1.047a3.035,3.035,0,0,1-1.41.5,6.2,6.2,0,0,1-.182-2.593,1.535,1.535,0,0,0-.728-1.775,1.406,1.406,0,0,0-.546-.182,3.337,3.337,0,0,0-2.229,1.319q-1.23,1.322-2.594,2.594.546-1.092.91-1.865t.546-1.229q.273-.455.455-.819a.8.8,0,0,0-.137-.683.783.783,0,0,0-.682-.318q-.546,0-1.137.956c-.254.409-.507.878-.76,1.374Q96.83,38.142,95.3,39.13q-1.548,1-2.274,1.456l-.819.546q-.093-.09.546-1.229a21.5,21.5,0,0,0,1.183-2.5,7.661,7.661,0,0,0,.591-2.5q.045-1.135-1.229-1.137a3.4,3.4,0,0,0-1.728.773,27.3,27.3,0,0,0-2.185,1.73q-1.091.954-1.956,1.774a5.388,5.388,0,0,1-.956.819c-.06,0,0-.151.183-.455s.409-.7.683-1.183.575-.986.91-1.5A13.379,13.379,0,0,1,89.2,34.4q.728-.726.455-1.091a.562.562,0,0,0-.637-.455q-.639,0-1.5,1a14.486,14.486,0,0,0-1.593,2.275c-.084.148-.156.292-.236.438-2.364,2.981-4.416,5.545-6.132,7.661Q76.829,47.594,75.1,49.5a19.208,19.208,0,0,1,1.046-4.55q.957-2.911,2.276-6.37t2.866-7.1q1.546-3.637,2.866-6.643t2.185-4.914q.864-1.911.955-2a6.429,6.429,0,0,1,1.729-.228q1.727-.136,4.459-.272t6.143-.274q3.411-.135,6.87-.136H109q1.227,0,2.411.091c.546,0,1.031.016,1.456.045s.788.046,1.092.046q1.365,0,1.456-.728c.059-.364-.137-.606-.592-.728a19.6,19.6,0,0,0-3.231-.273q-1.273-.09-2.638-.091h-2.821q-3.094,0-6.143.091t-5.6.227l-4.231.228q-1.686.091-2.048.091,1-2.274,1.82-3.958t1.729-3.641q.907-1.956,1.729-3.64T95.3.819Q95.482,0,94.665,0,94.027,0,93.3,1.274c-.181.3-.486.88-.909,1.729s-.9,1.836-1.411,2.957-1.061,2.275-1.638,3.458-1.091,2.275-1.546,3.276-.851,1.836-1.184,2.5a3.451,3.451,0,0,1-.591,1,17.284,17.284,0,0,1-2.412.273q-2.23.183-5.869.637t-8.326,1.229q-4.686.774-9.692,1.956a31.169,31.169,0,0,0-3.458,1.092,1.17,1.17,0,0,0-.819,1.092.643.643,0,0,0,.728.728,1.58,1.58,0,0,0,.728-.183,13.992,13.992,0,0,1,3.275-1.091q2.55-.636,6.326-1.32t8.507-1.365q4.732-.682,9.919-1.228h.365q0,.092-1.092,2.5t-2.639,6q-1.548,3.6-3.276,7.827c-.236.578-.461,1.144-.683,1.707a34.7,34.7,0,0,0-4.5,2.661q-2.456,1.685-4.732,3.321-.819-4.185-.091-6.1A6.964,6.964,0,0,1,69.6,34.034a3.577,3.577,0,0,1,1.593-1.092c.241-.06.378.032.409.273s.228.364.592.364a.733.733,0,0,0,.683-.5.977.977,0,0,0-.046-.955,1.419,1.419,0,0,0-1.456-.91,4.762,4.762,0,0,0-2.912,1.41,6.379,6.379,0,0,0-1.984,3.523c-.8.515-1.606,1.052-2.429,1.619q-1.32.911-2.457,1.592t-2.047,1.138a3.521,3.521,0,0,1-1.456.455q-.73,0-.638-1A12.452,12.452,0,0,1,58.812,36.4a4.43,4.43,0,0,0,.546-1.092,1.126,1.126,0,0,0,0-.637c-.061-.241-.3-.364-.728-.364a1.042,1.042,0,0,0-.455.09c-.181.062-.486.487-.91,1.275-.062.116-.114.246-.174.366l-.006,0q-2.64,1.911-4.733,3.276-1.821,1.275-3.275,2.275t-1.547.819a4.6,4.6,0,0,1,.227-.728c.151-.424.319-.849.5-1.274q.636-1.273,1.412-2.549a5.706,5.706,0,0,0,.864-2q.181-1.092-1.092-1.092h-.183q-.546.183-2,.819a12.214,12.214,0,0,1-2.366.819,7.848,7.848,0,0,1,1.138-1.683q.683-.772,1.319-1.411t1.047-1.092a1.271,1.271,0,0,0,.409-.728.643.643,0,0,0-.727-.728,1.331,1.331,0,0,0-.82.273A15.357,15.357,0,0,0,45.8,32.487c-.3.364-.668.789-1.091,1.274a8.739,8.739,0,0,0-1.047,1.456,3.951,3.951,0,0,0-.5,1.41,1.2,1.2,0,0,0,.455,1.138,1.908,1.908,0,0,0,1,.273,5.218,5.218,0,0,0,1.865-.364c.637-.241,1.2-.455,1.684-.637a14.461,14.461,0,0,1-.911,1.684,12.633,12.633,0,0,0-1.045,2.138,5.832,5.832,0,0,0-.411,2.047,1.161,1.161,0,0,0,.82,1.229.4.4,0,0,1,.181.046.393.393,0,0,0,.183.045,5.522,5.522,0,0,0,2.457-.865,33.5,33.5,0,0,0,3.139-2q1.591-1.135,3-2.229l.449-.346a6.213,6.213,0,0,0-.177,2.166,1.785,1.785,0,0,0,1.41,1.638,1.553,1.553,0,0,0,.637.091,5.744,5.744,0,0,0,2.185-.546,17.475,17.475,0,0,0,2.547-1.365q1.274-.819,2.5-1.684c.4-.278.758-.538,1.09-.781a10.334,10.334,0,0,0,.093,1.191q.227,1.638.5,4a11.767,11.767,0,0,1-.773.955q-.591.683-1.183,1.5a9.145,9.145,0,0,0-1,1.775,2.435,2.435,0,0,0-.137,1.774,1.173,1.173,0,0,0,.5.728c-.177.34-.354.679-.546,1.052q-1.593,3.094-4.231,8.554-5.461,11.1-8.372,17.973t-3.458,8.144a.511.511,0,0,1-.365.045,5.434,5.434,0,0,0-1.546.592q-2.184.91-4.778,1.774t-4.869,1.593l-5.277,1.456q.909-2.184,1.592-3.685t1.411-3.185q.726-1.683,1.365-3.049,4-8.917,6.824-14.97t4.6-9.873q1.774-3.822,2.73-5.779t1.32-2.82a4.617,4.617,0,0,0,.364-1.047.531.531,0,0,0-.183-.364.618.618,0,0,0-.455-.182,1.128,1.128,0,0,0-.818.364,19.819,19.819,0,0,0-2,3.777q-1.639,3.5-3.959,8.508T38.658,69.848Q36.065,75.581,33.835,80.5T28.694,91.961a13.2,13.2,0,0,1-1.911.592,28.934,28.934,0,0,0-3.549,1.228,23.976,23.976,0,0,0-3.822,1.956,5.712,5.712,0,0,0-1.684,1.547c-.273.455-.318.805-.137,1.047a.865.865,0,0,0,.729.364.384.384,0,0,0,.182-.046.41.41,0,0,1,.181-.045,7.034,7.034,0,0,0,1.093-.591q.819-.5,1.865-1.047t2.093-1A4.769,4.769,0,0,1,25.6,95.51q1.183,0,1.184.819a8.725,8.725,0,0,1-.546,1.5q-.546,1.321-1.184,2.958t-1.273,3.094a10.743,10.743,0,0,0-.729,2q-.182,1.182.729,1.183a1.252,1.252,0,0,0,.818-.455,8.23,8.23,0,0,0,.683-1.183q.41-.819.864-1.865t.865-2.093q.41-1.047.683-1.866.456-1.547.5-1.866a1.718,1.718,0,0,1,.137-.5q.09-.182.364-.865t1.273-2.957q6.006-1.727,9.328-2.775T44.255,89a18.993,18.993,0,0,0,2.047-.819,1.814,1.814,0,0,1,.5-.228,5.373,5.373,0,0,1-.5,1.5q-.592,1.5-1.5,3.777t-1.956,5q-1.047,2.73-1.911,5.1t-1.319,4.1c-.305,1.152-.364,1.82-.183,2a1.4,1.4,0,0,0,.546.182.748.748,0,0,0,.41-.091,1.613,1.613,0,0,0,.364-.546,9.656,9.656,0,0,0,.5-1.32q.271-.865.819-2.411,1.91-5.733,4.322-11.784T51.352,81.5q2.547-5.915,5.1-11.421t4.822-10.146q2.275-4.641,4.1-8.145m21.015-3.372a18.517,18.517,0,0,1-.91,1.775q-.908,1.685-2.183,3.822T80.6,58.149a14.664,14.664,0,0,1-2.411,2.821,11.242,11.242,0,0,1,1.684-4q1.412-2.274,2.912-4.322t2.638-3.322q1.137-1.273.955-.91M27.693,94.418a2.139,2.139,0,0,0-.547-.364,1.718,1.718,0,0,1,.41-.137,1.536,1.536,0,0,0,.409-.136,4.623,4.623,0,0,1-.272.637" fill="#707070"/>
    <path id="Path_1515" data-name="Path 1515" d="M106.313,70.485a3.234,3.234,0,0,0-1.319.363c-.517.243-.9.426-1.138.546a.777.777,0,0,0-.318.865.581.581,0,0,0,.591.5,3.142,3.142,0,0,0,1.638-.409,3.7,3.7,0,0,0,1.274-.773.529.529,0,0,0,.091-.5,1.233,1.233,0,0,0-.273-.409.747.747,0,0,0-.546-.182" fill="#707070"/>
    <path id="Path_1516" data-name="Path 1516" d="M135.3,62.158q1.591-3.047,2.912-5.369t2.684-4.778q4.731-8.552,4.823-9.464a.884.884,0,0,0-.272-.864.92.92,0,0,0-.82-.227q-.456.09-1.365,1.547-2.455,4-3.913,6.961t-3.048,6.1Q134.7,59.2,132.338,63.25T125.7,73.488a9.11,9.11,0,0,1-1.092,1.456c-.062,0-.108-.106-.137-.319a.907.907,0,0,0-.5-.591,1.488,1.488,0,0,0-.818-.183,3.906,3.906,0,0,0-2.457,1.229c-.334.3-.641.638-.95.975q-1.353.631-3.145,1.528-1.823.911-3.776,1.728t-3.732,1.365a10.414,10.414,0,0,1-2.957.546q-1.365,0-1.638-.91a3.5,3.5,0,0,1,.364-2.047,9.142,9.142,0,0,1,1.274-2.229,1.985,1.985,0,0,0,.5-.637,1.459,1.459,0,0,0,.046-.364q-.185-.909-.91-.91a1.237,1.237,0,0,0-.91.545,8.708,8.708,0,0,1-.91,1q-.73.73-1.729,1.638t-2.048,1.73a6.5,6.5,0,0,1-1.865,1.091,9.459,9.459,0,0,1,.546-1.546,18.148,18.148,0,0,1,.91-1.593,5.874,5.874,0,0,1,1.547-1.592,3.761,3.761,0,0,1,.728-.547,1.56,1.56,0,0,1,.637-.272c.12,0,.257.152.409.455a.728.728,0,0,0,.683.455.37.37,0,0,0,.273-.091q.634-.274.227-1.365a1.622,1.622,0,0,0-1.684-1.092h-.363a4.608,4.608,0,0,0-1.957,1.046A11.376,11.376,0,0,0,98.4,75.945c-.025.033-.042.068-.067.1l-.024-.01c-.122.06-.455.258-1,.591s-1.137.7-1.774,1.092-1.229.728-1.775,1-.88.379-1,.319c-.06-.06-.06-.243,0-.546s.121-.667.183-1.092.1-.834.136-1.229a1.412,1.412,0,0,0-.136-.865,1.116,1.116,0,0,0-1-.637,3.177,3.177,0,0,0-1.911.774q-1,.775-1.911,1.5a6.9,6.9,0,0,1,.5-1.047,2.769,2.769,0,0,0,.41-1.593,1.047,1.047,0,0,0-1.093-1,2.9,2.9,0,0,0-.818.183q-.547.365-1.275.955t-1.456,1.274q-.729.682-1.365,1.365T81.925,78.31c.06-.12.2-.409.41-.864s.423-.94.637-1.456.409-1.015.592-1.5.241-.788.182-.91a.862.862,0,0,0-.911-.729.653.653,0,0,0-.636.364l-.365.729c-.283.729-.586,1.422-.9,2.1l-.012,0a2.94,2.94,0,0,0-.637.272q-.546.274-1.228.592t-1.5.637q-.82.321-1.456.5a4.729,4.729,0,0,1-1,.272c-.364.062-.578.092-.638.092a9.209,9.209,0,0,0,.319-1.365,7.143,7.143,0,0,0,.091-1.593,3.267,3.267,0,0,0-.364-1.365,1.027,1.027,0,0,0-.955-.591,2.72,2.72,0,0,0-1.456.546,2.166,2.166,0,0,0-.547.363,6.519,6.519,0,0,0-1.137,1.548c-.038.064-.067.134-.1.2q-2.548,1.839-4.581,3.167-1.821,1.277-3.276,2.275t-1.547.82a4.556,4.556,0,0,1,.227-.729q.228-.636.5-1.273.636-1.275,1.41-2.549a5.685,5.685,0,0,0,.865-2q.181-1.09-1.092-1.092h-.182q-.546.183-2,.82a12.375,12.375,0,0,1-2.366.819,7.842,7.842,0,0,1,1.138-1.684q.683-.771,1.319-1.411t1.046-1.092a1.275,1.275,0,0,0,.41-.727.644.644,0,0,0-.728-.729,1.321,1.321,0,0,0-.819.274,15.105,15.105,0,0,0-1.456,1.456c-.305.363-.669.789-1.092,1.273a8.822,8.822,0,0,0-1.047,1.456,4,4,0,0,0-.5,1.411,1.2,1.2,0,0,0,.456,1.137,1.9,1.9,0,0,0,1,.274,5.2,5.2,0,0,0,1.866-.365c.636-.241,1.2-.455,1.683-.636a14.427,14.427,0,0,1-.91,1.683,12.653,12.653,0,0,0-1.047,2.139,5.84,5.84,0,0,0-.409,2.047A1.159,1.159,0,0,0,60,84.134a.413.413,0,0,1,.183.046.392.392,0,0,0,.182.045,5.531,5.531,0,0,0,2.457-.864,33.374,33.374,0,0,0,3.139-2q1.591-1.137,3-2.23l.13-.1a7.977,7.977,0,0,0-.313,2.375A1.35,1.35,0,0,0,70,82.861h.274a1.929,1.929,0,0,0,1.182-.41,6.982,6.982,0,0,0,1-.91,14.582,14.582,0,0,0,1.093-1.411,10.547,10.547,0,0,0,4-.773c.768-.31,1.521-.643,2.266-.987-.214.459-.41.9-.584,1.305a7.615,7.615,0,0,0-.591,1.957,1.04,1.04,0,0,0,.637,1.137,1.247,1.247,0,0,0,.545.092,2.373,2.373,0,0,0,.865-.5,27.452,27.452,0,0,0,2.229-2.411q.546-.636,1.184-1.32T85.292,77.4l.865-.865c.212-.212.318-.287.318-.228-.061.123-.243.5-.546,1.138a3.81,3.81,0,0,0-.455,1.5q0,1.184,1.093,1.182a.523.523,0,0,0,.363-.09c.242-.121.5-.258.774-.41a10.385,10.385,0,0,0,1.5-1.228,22.759,22.759,0,0,1,2-1.548c.06,0,.031.214-.09.638a4.581,4.581,0,0,0-.046,1.182,2.6,2.6,0,0,0,.318,1.184,1.646,1.646,0,0,0,1.456.909,3.844,3.844,0,0,0,1.411-.363,18.794,18.794,0,0,0,1.775-.865c.27-.148.512-.3.771-.447a3.408,3.408,0,0,0-.136,1.22q.185,1.55,1.548,1.548a3.075,3.075,0,0,0,1.365-.364,10.072,10.072,0,0,0,1.365-.82,12.065,12.065,0,0,0,1.137-.91,4.194,4.194,0,0,1,.683-.546,3.6,3.6,0,0,0,.182,1.639,2.862,2.862,0,0,0,.773,1.228,3.1,3.1,0,0,0,1.775.774,2.234,2.234,0,0,1,.41.045,2.039,2.039,0,0,0,.409.046,11.359,11.359,0,0,0,3.276-.592q1.911-.591,3.912-1.41t3.778-1.73l.28-.143a11.7,11.7,0,0,0-.918,2.145,2.915,2.915,0,0,0,.045,2.457.731.731,0,0,0,.638.5,8.1,8.1,0,0,0,.818.045q1-.088,3-2.093a57.045,57.045,0,0,0,5.46-6.916,16.051,16.051,0,0,1,1.455-2q.182,0-1.774,3.959t-5.233,12.786q-1.821,4.732-2.593,7.28t-1.047,3.73a3.928,3.928,0,0,0-.181,1.456.851.851,0,0,1,0,.546,2.818,2.818,0,0,0,.909.455q.365,0,.592-.955t1-3.458q.771-2.5,2.366-6.962t4.6-11.375q2.91-6.732,4.959-11.1t3.64-7.417M71.006,80.586a4.423,4.423,0,0,1-.636.545q.363-2.091.545-2.092c.06,0,.212.122.456.364l.455.363ZM73.282,75.9a5.9,5.9,0,0,1-.365,1.774c-.122.305-.213.455-.272.455a.262.262,0,0,1-.183-.09.989.989,0,0,1-.272-.729,2.013,2.013,0,0,1,.227-.909,3.8,3.8,0,0,1,.5-.774c.183-.211.3-.319.365-.319ZM121.1,79.357q-1.5,1.593-3.049,3.14a2.256,2.256,0,0,1,.183-.82c.122-.3.272-.651.455-1.046a12.417,12.417,0,0,1,.727-1.32,13.6,13.6,0,0,1,2.139-2.82q1.044-1,1.5-1a.375.375,0,0,1,.273.091.986.986,0,0,0,.728.272,43.546,43.546,0,0,1-2.957,3.5" fill="#707070"/>
    <path id="Path_1517" data-name="Path 1517" d="M176.106,72.76a3.142,3.142,0,0,0,1.638-.409,3.674,3.674,0,0,0,1.274-.774.529.529,0,0,0,.091-.5,1.259,1.259,0,0,0-.273-.409.746.746,0,0,0-.546-.181,3.242,3.242,0,0,0-1.32.363c-.515.243-.9.426-1.137.546a.78.78,0,0,0-.319.865.582.582,0,0,0,.592.5" fill="#707070"/>
    <path id="Path_1518" data-name="Path 1518" d="M191.758,76.036q-1.365.637-3.185,1.547T184.8,79.311q-1.958.821-3.73,1.365a10.426,10.426,0,0,1-2.958.546q-1.365,0-1.638-.91a3.505,3.505,0,0,1,.363-2.047,9.176,9.176,0,0,1,1.275-2.229,1.993,1.993,0,0,0,.5-.637,1.556,1.556,0,0,0,.045-.364q-.183-.909-.91-.91a1.242,1.242,0,0,0-.911.545,8.664,8.664,0,0,1-.909,1q-.729.73-1.729,1.638t-2.047,1.73a6.5,6.5,0,0,1-1.866,1.091,9.366,9.366,0,0,1,.546-1.546,18.146,18.146,0,0,1,.91-1.593,5.889,5.889,0,0,1,1.547-1.592,3.73,3.73,0,0,1,.728-.547,1.571,1.571,0,0,1,.637-.272c.121,0,.258.152.409.455a.729.729,0,0,0,.683.455.37.37,0,0,0,.273-.091q.636-.274.228-1.365a1.625,1.625,0,0,0-1.684-1.092H174.2a4.594,4.594,0,0,0-1.956,1.046,11.388,11.388,0,0,0-1.867,1.957c-.025.034-.043.07-.068.1-.008,0-.013-.009-.02-.013l-1,.364c-.305.122-.729.288-1.275.5s-1.214.471-2,.773a8.471,8.471,0,0,1-3,.729q-1.092,0-1.182-.683a4.278,4.278,0,0,1,.135-1.592q.228-.909.411-1.684c.12-.515,0-.864-.365-1.047a1.654,1.654,0,0,0-.455-.182q-.364,0-1.274,1.366-1.821,2.73-3.048,4.413t-1.957,2.684q-.909,1.093-1.364,1.639a16.861,16.861,0,0,1,.409-2.457q.318-1.365.727-2.731a25.084,25.084,0,0,1,.911-2.547q.5-1.182.864-1.911a1.127,1.127,0,0,0,.273-.637.664.664,0,0,0-.727-.638,1.136,1.136,0,0,0-.82.364,6.747,6.747,0,0,0-1.228,2.23c-.141.34-.262.708-.392,1.064a5.467,5.467,0,0,0-.563.255q-.546.274-1.229.592t-1.5.637q-.821.321-1.456.5a4.7,4.7,0,0,1-1,.272c-.364.062-.578.092-.637.092a9.222,9.222,0,0,0,.318-1.365,7.145,7.145,0,0,0,.092-1.593,3.282,3.282,0,0,0-.364-1.365,1.028,1.028,0,0,0-.956-.591,2.723,2.723,0,0,0-1.456.546,2.158,2.158,0,0,0-.546.363,6.462,6.462,0,0,0-1.137,1.548c-.03.048-.051.1-.079.15-.618.284-1.185.568-1.7.851q-.729.365-1.365.637a6.131,6.131,0,0,0-.91.455,12.29,12.29,0,0,1-3,.864q-1.184.136-2.184.318a12.93,12.93,0,0,0,1.729-1.456q.728-.726,1.5-1.592a7.356,7.356,0,0,0,1.228-1.866q.728-1.455.364-2.138a1.17,1.17,0,0,0-1.092-.682,2.972,2.972,0,0,0-.91.182,7.91,7.91,0,0,0-1.455.955q-.73.592-1.321,1.137t-.91.865c-.213.213-.318.289-.318.227q.09-.18.728-1.638t1.5-3.321q.865-1.864,1.73-3.731t1.319-2.957q2.184-4.823,4.368-9.192t3.868-7.78q1.683-3.413,2.775-5.506a10.512,10.512,0,0,0,1.092-2.457q.182-.819-.728-.818a.8.8,0,0,0-.592.227,5.931,5.931,0,0,0-.636.865,17.866,17.866,0,0,0-1,1.865q-.594,1.229-1.593,3.321-2.367,4.732-4.413,8.919t-3.913,8.1q-1.866,3.913-3.549,7.689t-3.321,7.69q-1.182,2.913-1.957,4.64T127.605,83.5a3.7,3.7,0,0,0-.318,1.365.7.7,0,0,0,.5.546.526.526,0,0,0,.363.091q.456,0,.91-.955c.3-.638.517-1.107.638-1.412.122-.241.3-.605.546-1.091l.455-.911a2.044,2.044,0,0,1,.864-.09q.772,0,1.956-.091c.788-.06,1.639-.152,2.548-.274a21.443,21.443,0,0,0,2.73-.546q.636-.271,1.5-.636t1.639-.729c.125-.059.232-.114.349-.171-.009.027-.022.053-.031.08a8.262,8.262,0,0,0-.41,2.731,1.351,1.351,0,0,0,1.229,1.456h.273a1.934,1.934,0,0,0,1.183-.41,7.09,7.09,0,0,0,1-.91,14.6,14.6,0,0,0,1.092-1.411,10.547,10.547,0,0,0,4-.773c.884-.357,1.748-.745,2.6-1.147-.078.278-.166.542-.237.829a27.989,27.989,0,0,0-.729,4.049q-.182,1.868.638,2.321a1.383,1.383,0,0,0,.546.181q.907,0,2.365-1.82t4.277-5.915a3.02,3.02,0,0,0,.5,1.138,3.344,3.344,0,0,0,.909.773,3.018,3.018,0,0,0,1.593.364,7.9,7.9,0,0,0,2.866-.682q1.246-.505,3.119-1.236c-.008.018-.018.035-.026.053a4.386,4.386,0,0,0-.409,2.047q.183,1.55,1.547,1.548a3.069,3.069,0,0,0,1.365-.364,10.135,10.135,0,0,0,1.365-.82,12.2,12.2,0,0,0,1.137-.91,4.194,4.194,0,0,1,.683-.546,3.6,3.6,0,0,0,.182,1.639,2.845,2.845,0,0,0,.774,1.228,3.1,3.1,0,0,0,1.774.774,2.215,2.215,0,0,1,.409.045,2.047,2.047,0,0,0,.409.046,11.364,11.364,0,0,0,3.277-.592q1.911-.591,3.913-1.41t3.776-1.73q1.776-.908,2.867-1.456a.816.816,0,0,0,.5-.773q.045-.591-.864-.955M132.7,78.31c-.123,0-.062-.12.181-.363a21.165,21.165,0,0,1,3.049-3.367q1.227-1,1.41-1.184-.271.364-.864,1.184t-1.319,1.637c-.487.546-.956,1.033-1.412,1.456a1.917,1.917,0,0,1-1.045.637m11.374,2.276a4.423,4.423,0,0,1-.637.545q.363-2.091.546-2.092c.059,0,.212.122.455.364l.455.363Zm2.275-4.687a5.927,5.927,0,0,1-.364,1.774c-.122.305-.213.455-.273.455a.26.26,0,0,1-.182-.09.985.985,0,0,1-.273-.729,2,2,0,0,1,.228-.909,3.717,3.717,0,0,1,.5-.774c.182-.211.3-.319.364-.319Z" fill="#707070"/>
  </g>
</svg>
